<svg width="26" height="26" viewBox="0 0 26 26" fill="none" xmlns="http://www.w3.org/2000/svg">
<path d="M2.16675 13C2.16675 14.4366 2.73743 15.8144 3.75325 16.8302C4.76908 17.846 6.14683 18.4167 7.58342 18.4167C9.5851 18.4913 11.4992 19.2569 13.0001 20.5834C14.501 19.2569 16.4151 18.4913 18.4167 18.4167C19.8533 18.4167 21.2311 17.846 22.2469 16.8302C23.2627 15.8144 23.8334 14.4366 23.8334 13V7.58337H18.4167C16.4151 7.65793 14.501 8.42356 13.0001 9.75004C11.4992 8.42356 9.5851 7.65793 7.58342 7.58337H2.16675V13Z" stroke="#E6372B" stroke-width="1.625" stroke-linecap="round" stroke-linejoin="round"/>
<path d="M6.50008 11.9167C8.12508 11.9167 9.75008 12.4584 9.75008 14.0834C7.58342 14.0834 6.50008 14.0834 6.50008 11.9167Z" stroke="#E6372B" stroke-width="1.625" stroke-linecap="round" stroke-linejoin="round"/>
<path d="M19.5001 11.9167C17.8751 11.9167 16.2501 12.4584 16.2501 14.0834C18.4167 14.0834 19.5001 14.0834 19.5001 11.9167Z" stroke="#E6372B" stroke-width="1.625" stroke-linecap="round" stroke-linejoin="round"/>
</svg>
