<svg width="684" height="230" viewBox="0 0 684 230" fill="none" xmlns="http://www.w3.org/2000/svg">
<circle id="user" cx="42.8626" cy="98.37" r="26.46" fill="#FFF1F0"/>
<path d="M32.5293 98.4599C32.5293 99.8965 33.1 101.274 34.1158 102.29C35.1316 103.306 36.5094 103.877 37.946 103.877C39.9477 103.951 41.8617 104.717 43.3626 106.043C44.8635 104.717 46.7776 103.951 48.7793 103.877C50.2159 103.877 51.5936 103.306 52.6095 102.29C53.6253 101.274 54.196 99.8965 54.196 98.4599V93.0432H48.7793C46.7776 93.1178 44.8635 93.8834 43.3626 95.2099C41.8617 93.8834 39.9477 93.1178 37.946 93.0432H32.5293V98.4599Z" stroke="#E6372B" stroke-width="1.625" stroke-linecap="round" stroke-linejoin="round"/>
<path d="M36.8626 97.3765C38.4876 97.3765 40.1126 97.9182 40.1126 99.5432C37.946 99.5432 36.8626 99.5432 36.8626 97.3765Z" stroke="#E6372B" stroke-width="1.625" stroke-linecap="round" stroke-linejoin="round"/>
<path d="M49.8626 97.3765C48.2376 97.3765 46.6126 97.9182 46.6126 99.5432C48.7793 99.5432 49.8626 99.5432 49.8626 97.3765Z" stroke="#E6372B" stroke-width="1.625" stroke-linecap="round" stroke-linejoin="round"/>
<circle id="server3" cx="63.4023" cy="76.9102" r="10.5" fill="#7A44FF" stroke="#FAFAFA" class="server-circle"/>
<mask id="mask0_1_374" style="mask-type:alpha" maskUnits="userSpaceOnUse" x="57" y="69" width="14" height="14">
<rect x="57.4026" y="69.91" width="13" height="13" fill="#D9D9D9"/>
</mask>
<g mask="url(#mask0_1_374)">
<path d="M57.9441 80.7436V79.2269C57.9441 78.92 58.0231 78.6378 58.1811 78.3805C58.3391 78.1233 58.549 77.9269 58.8108 77.7915C59.3705 77.5116 59.9392 77.3017 60.517 77.1618C61.0948 77.0219 61.6816 76.9519 62.2774 76.9519C62.8733 76.9519 63.4601 77.0219 64.0378 77.1618C64.6156 77.3017 65.1844 77.5116 65.7441 77.7915C66.0059 77.9269 66.2158 78.1233 66.3738 78.3805C66.5318 78.6378 66.6108 78.92 66.6108 79.2269V80.7436H57.9441ZM67.6941 80.7436V79.1186C67.6941 78.7213 67.5835 78.3399 67.3623 77.9743C67.1411 77.6087 66.8274 77.295 66.4212 77.0332C66.8816 77.0873 67.3149 77.1799 67.7212 77.3108C68.1274 77.4417 68.5066 77.6019 68.8587 77.7915C69.1837 77.972 69.4319 78.1729 69.6035 78.3941C69.775 78.6153 69.8608 78.8568 69.8608 79.1186V80.7436H67.6941ZM62.2774 76.4102C61.6816 76.4102 61.1715 76.1981 60.7472 75.7738C60.3229 75.3495 60.1108 74.8394 60.1108 74.2436C60.1108 73.6477 60.3229 73.1377 60.7472 72.7134C61.1715 72.2891 61.6816 72.0769 62.2774 72.0769C62.8733 72.0769 63.3833 72.2891 63.8076 72.7134C64.2319 73.1377 64.4441 73.6477 64.4441 74.2436C64.4441 74.8394 64.2319 75.3495 63.8076 75.7738C63.3833 76.1981 62.8733 76.4102 62.2774 76.4102ZM67.6941 74.2436C67.6941 74.8394 67.4819 75.3495 67.0576 75.7738C66.6333 76.1981 66.1233 76.4102 65.5274 76.4102C65.4281 76.4102 65.3017 76.399 65.1483 76.3764C64.9948 76.3538 64.8684 76.329 64.7691 76.3019C65.0128 76.013 65.2002 75.6925 65.3311 75.3404C65.462 74.9884 65.5274 74.6227 65.5274 74.2436C65.5274 73.8644 65.462 73.4988 65.3311 73.1467C65.2002 72.7946 65.0128 72.4741 64.7691 72.1852C64.8955 72.1401 65.0219 72.1108 65.1483 72.0972C65.2746 72.0837 65.401 72.0769 65.5274 72.0769C66.1233 72.0769 66.6333 72.2891 67.0576 72.7134C67.4819 73.1377 67.6941 73.6477 67.6941 74.2436ZM59.0274 79.6602H65.5274V79.2269C65.5274 79.1276 65.5026 79.0373 65.4529 78.9561C65.4033 78.8748 65.3378 78.8116 65.2566 78.7665C64.7691 78.5227 64.2771 78.3399 63.7806 78.2181C63.284 78.0962 62.783 78.0352 62.2774 78.0352C61.7719 78.0352 61.2708 78.0962 60.7743 78.2181C60.2778 78.3399 59.7858 78.5227 59.2983 78.7665C59.217 78.8116 59.1516 78.8748 59.1019 78.9561C59.0523 79.0373 59.0274 79.1276 59.0274 79.2269V79.6602ZM62.2774 75.3269C62.5753 75.3269 62.8304 75.2208 63.0425 75.0087C63.2547 74.7965 63.3608 74.5415 63.3608 74.2436C63.3608 73.9457 63.2547 73.6906 63.0425 73.4785C62.8304 73.2663 62.5753 73.1602 62.2774 73.1602C61.9795 73.1602 61.7245 73.2663 61.5123 73.4785C61.3002 73.6906 61.1941 73.9457 61.1941 74.2436C61.1941 74.5415 61.3002 74.7965 61.5123 75.0087C61.7245 75.2208 61.9795 75.3269 62.2774 75.3269Z" fill="white"/>
</g>
<path d="M4.89056e-05 141.23L0.00654892 131.831H1.60555V139.865H5.85005V141.23H4.89056e-05ZM9.89305 141.36C9.25172 141.36 8.69272 141.224 8.21605 140.951C7.73938 140.673 7.36888 140.277 7.10455 139.761C6.84455 139.245 6.71455 138.626 6.71455 137.902C6.71455 137.2 6.84238 136.585 7.09805 136.056C7.35372 135.527 7.71772 135.116 8.19005 134.821C8.66672 134.526 9.23655 134.379 9.89955 134.379C10.5409 134.379 11.0977 134.52 11.57 134.802C12.0424 135.083 12.4064 135.486 12.662 136.011C12.922 136.535 13.052 137.165 13.052 137.902C13.052 138.582 12.9285 139.183 12.6815 139.703C12.4389 140.218 12.0814 140.623 11.609 140.918C11.141 141.213 10.569 141.36 9.89305 141.36ZM9.89955 140.158C10.2635 140.158 10.5625 140.058 10.7965 139.859C11.0349 139.659 11.2125 139.386 11.3295 139.04C11.4465 138.693 11.505 138.299 11.505 137.857C11.505 137.445 11.453 137.066 11.349 136.719C11.245 136.372 11.0739 136.095 10.8355 135.887C10.6015 135.675 10.2895 135.569 9.89955 135.569C9.53122 135.569 9.22572 135.666 8.98305 135.861C8.74472 136.052 8.56705 136.32 8.45005 136.667C8.33305 137.009 8.27455 137.406 8.27455 137.857C8.27455 138.264 8.32655 138.643 8.43055 138.994C8.53455 139.341 8.70572 139.622 8.94405 139.839C9.18238 140.051 9.50088 140.158 9.89955 140.158ZM14.4988 141.23V134.509H16.0133V135.965C16.1216 135.631 16.2755 135.348 16.4748 135.114C16.6785 134.875 16.9168 134.693 17.1898 134.568C17.4628 134.442 17.7596 134.379 18.0803 134.379C18.1583 134.379 18.2341 134.383 18.3078 134.392C18.3815 134.401 18.4356 134.416 18.4703 134.438V135.952C18.4226 135.93 18.3598 135.915 18.2818 135.907C18.2081 135.898 18.1431 135.894 18.0868 135.894C17.7618 135.868 17.4736 135.881 17.2223 135.933C16.9753 135.985 16.7651 136.073 16.5918 136.199C16.4228 136.32 16.295 136.476 16.2083 136.667C16.1216 136.853 16.0783 137.072 16.0783 137.324V141.23H14.4988ZM22.649 141.36C22.0033 141.36 21.4335 141.224 20.9395 140.951C20.4498 140.673 20.0663 140.279 19.789 139.768C19.516 139.256 19.3795 138.647 19.3795 137.941C19.3795 137.252 19.503 136.641 19.75 136.108C20.0013 135.571 20.3632 135.148 20.8355 134.841C21.3122 134.533 21.8863 134.379 22.558 134.379C23.221 134.379 23.7778 134.52 24.2285 134.802C24.6792 135.083 25.0215 135.478 25.2555 135.985C25.4895 136.487 25.6065 137.077 25.6065 137.753V138.234H20.959C20.9547 138.615 21.0153 138.953 21.141 139.248C21.2667 139.542 21.453 139.774 21.7 139.943C21.947 140.108 22.2525 140.19 22.6165 140.19C22.9892 140.19 23.312 140.108 23.585 139.943C23.8623 139.774 24.0465 139.518 24.1375 139.176H25.5805C25.5025 139.644 25.3162 140.041 25.0215 140.366C24.7312 140.691 24.3758 140.938 23.9555 141.107C23.5395 141.276 23.104 141.36 22.649 141.36ZM20.9525 137.252H24.1115C24.1115 136.927 24.053 136.635 23.936 136.375C23.8233 136.11 23.6522 135.902 23.4225 135.751C23.1928 135.595 22.9025 135.517 22.5515 135.517C22.2048 135.517 21.9123 135.601 21.674 135.77C21.4357 135.939 21.2558 136.158 21.1345 136.427C21.0132 136.691 20.9525 136.966 20.9525 137.252ZM27.1179 141.23V134.509H28.6584V135.471C28.8534 135.176 29.1178 134.921 29.4514 134.704C29.7894 134.487 30.2184 134.379 30.7384 134.379C30.9768 134.379 31.2173 134.42 31.4599 134.503C31.7069 134.585 31.9344 134.706 32.1424 134.867C32.3548 135.027 32.5238 135.226 32.6494 135.465C32.8618 135.148 33.1434 134.888 33.4944 134.685C33.8498 134.481 34.2484 134.379 34.6904 134.379C34.9331 134.379 35.1823 134.418 35.4379 134.496C35.6979 134.574 35.9363 134.704 36.1529 134.886C36.3696 135.068 36.5451 135.317 36.6794 135.634C36.8138 135.946 36.8809 136.338 36.8809 136.81V141.23H35.3014V136.999C35.3014 136.665 35.2429 136.403 35.1259 136.212C35.0089 136.021 34.8573 135.887 34.6709 135.809C34.4889 135.727 34.2939 135.686 34.0859 135.686C33.8996 135.686 33.7046 135.722 33.5009 135.796C33.3016 135.87 33.1304 135.991 32.9874 136.16C32.8488 136.329 32.7794 136.557 32.7794 136.843V141.23H31.1999V136.745C31.1999 136.511 31.1393 136.316 31.0179 136.16C30.8966 136.004 30.7428 135.887 30.5564 135.809C30.3744 135.727 30.1881 135.686 29.9974 135.686C29.8024 135.686 29.6031 135.727 29.3994 135.809C29.2001 135.891 29.0333 136.017 28.8989 136.186C28.7646 136.355 28.6974 136.574 28.6974 136.843V141.23H27.1179ZM38.6078 141.23V134.509H40.1223V141.23H38.6078ZM38.5818 133.333V131.838H40.1483V133.333H38.5818ZM41.9969 143.323V134.509H43.5764L43.5894 135.569C43.676 135.421 43.7865 135.276 43.9209 135.133C44.0595 134.99 44.2177 134.862 44.3954 134.75C44.5774 134.637 44.7789 134.548 44.9999 134.483C45.2209 134.414 45.4635 134.379 45.7279 134.379C46.2435 134.379 46.7007 134.503 47.0994 134.75C47.498 134.992 47.81 135.367 48.0354 135.874C48.265 136.381 48.3799 137.022 48.3799 137.798C48.3799 138.591 48.2629 139.252 48.0289 139.781C47.7949 140.309 47.4677 140.706 47.0474 140.97C46.627 141.23 46.1395 141.36 45.5849 141.36C45.3292 141.36 45.0952 141.325 44.8829 141.256C44.6749 141.187 44.4885 141.091 44.3239 140.97C44.1592 140.849 44.014 140.717 43.8884 140.574C43.767 140.431 43.6652 140.281 43.5829 140.125V143.323H41.9969ZM45.2339 140.177C45.7105 140.177 46.1049 139.989 46.4169 139.612C46.7289 139.23 46.8849 138.634 46.8849 137.824C46.8849 137.122 46.7375 136.57 46.4429 136.167C46.1525 135.759 45.7495 135.556 45.2339 135.556C44.6792 135.556 44.2632 135.77 43.9859 136.199C43.7085 136.624 43.5699 137.165 43.5699 137.824C43.5699 138.249 43.6305 138.641 43.7519 139.001C43.8775 139.356 44.0617 139.642 44.3044 139.859C44.5514 140.071 44.8612 140.177 45.2339 140.177ZM52.3658 141.36C51.8978 141.36 51.4536 141.286 51.0333 141.139C50.6173 140.987 50.2663 140.751 49.9803 140.431C49.6986 140.11 49.5209 139.696 49.4473 139.189H50.8383C50.8989 139.436 51.0051 139.638 51.1568 139.794C51.3128 139.95 51.4948 140.064 51.7028 140.138C51.9151 140.207 52.1339 140.242 52.3593 140.242C52.7623 140.242 53.0873 140.173 53.3343 140.034C53.5813 139.895 53.7048 139.681 53.7048 139.391C53.7048 139.178 53.6354 139.009 53.4968 138.884C53.3624 138.758 53.1414 138.663 52.8338 138.598L51.5598 138.305C50.9878 138.179 50.5306 137.971 50.1883 137.681C49.8459 137.391 49.6726 136.981 49.6683 136.453C49.6639 136.054 49.7636 135.699 49.9673 135.387C50.1709 135.075 50.4743 134.83 50.8773 134.652C51.2803 134.47 51.7764 134.379 52.3658 134.379C53.1501 134.379 53.7784 134.555 54.2508 134.906C54.7274 135.252 54.9723 135.748 54.9853 136.394H53.6398C53.5921 136.104 53.4556 135.878 53.2303 135.718C53.0049 135.553 52.7124 135.471 52.3528 135.471C51.9801 135.471 51.6746 135.543 51.4363 135.686C51.1979 135.829 51.0788 136.047 51.0788 136.342C51.0788 136.546 51.1676 136.706 51.3453 136.823C51.5273 136.94 51.8024 137.04 52.1708 137.122L53.3798 137.415C53.7264 137.501 54.0103 137.618 54.2313 137.766C54.4523 137.913 54.6234 138.075 54.7448 138.253C54.8704 138.426 54.9571 138.606 55.0048 138.793C55.0568 138.975 55.0828 139.144 55.0828 139.3C55.0828 139.733 54.9701 140.103 54.7448 140.411C54.5238 140.714 54.2096 140.948 53.8023 141.113C53.3993 141.278 52.9204 141.36 52.3658 141.36ZM58.9903 141.36C58.661 141.36 58.3425 141.312 58.0348 141.217C57.7315 141.117 57.4585 140.974 57.2158 140.788C56.9731 140.597 56.7803 140.363 56.6373 140.086C56.4943 139.809 56.4228 139.486 56.4228 139.118V134.509H58.0088V138.936C58.0088 139.3 58.1236 139.599 58.3533 139.833C58.5873 140.067 58.9383 140.184 59.4063 140.184C59.831 140.184 60.1711 140.073 60.4268 139.852C60.6825 139.627 60.8103 139.304 60.8103 138.884V134.509H62.3833V141.23H61.1678L60.9923 139.917C60.91 140.285 60.7648 140.576 60.5568 140.788C60.3531 140.996 60.1126 141.143 59.8353 141.23C59.5623 141.317 59.2806 141.36 58.9903 141.36ZM64.239 141.23V134.509H65.7795V135.471C65.9745 135.176 66.2389 134.921 66.5725 134.704C66.9105 134.487 67.3395 134.379 67.8595 134.379C68.0979 134.379 68.3384 134.42 68.581 134.503C68.828 134.585 69.0555 134.706 69.2635 134.867C69.4759 135.027 69.6449 135.226 69.7705 135.465C69.9829 135.148 70.2645 134.888 70.6155 134.685C70.9709 134.481 71.3695 134.379 71.8115 134.379C72.0542 134.379 72.3034 134.418 72.559 134.496C72.819 134.574 73.0574 134.704 73.274 134.886C73.4907 135.068 73.6662 135.317 73.8005 135.634C73.9349 135.946 74.002 136.338 74.002 136.81V141.23H72.4225V136.999C72.4225 136.665 72.364 136.403 72.247 136.212C72.13 136.021 71.9784 135.887 71.792 135.809C71.61 135.727 71.415 135.686 71.207 135.686C71.0207 135.686 70.8257 135.722 70.622 135.796C70.4227 135.87 70.2515 135.991 70.1085 136.16C69.9699 136.329 69.9005 136.557 69.9005 136.843V141.23H68.321V136.745C68.321 136.511 68.2604 136.316 68.139 136.16C68.0177 136.004 67.8639 135.887 67.6775 135.809C67.4955 135.727 67.3092 135.686 67.1185 135.686C66.9235 135.686 66.7242 135.727 66.5205 135.809C66.3212 135.891 66.1544 136.017 66.02 136.186C65.8857 136.355 65.8185 136.574 65.8185 136.843V141.23H64.239ZM75.7029 141.23V134.509H77.2434V135.471C77.4384 135.176 77.7027 134.921 78.0364 134.704C78.3744 134.487 78.8034 134.379 79.3234 134.379C79.5617 134.379 79.8022 134.42 80.0449 134.503C80.2919 134.585 80.5194 134.706 80.7274 134.867C80.9397 135.027 81.1087 135.226 81.2344 135.465C81.4467 135.148 81.7284 134.888 82.0794 134.685C82.4347 134.481 82.8334 134.379 83.2754 134.379C83.5181 134.379 83.7672 134.418 84.0229 134.496C84.2829 134.574 84.5212 134.704 84.7379 134.886C84.9546 135.068 85.1301 135.317 85.2644 135.634C85.3987 135.946 85.4659 136.338 85.4659 136.81V141.23H83.8864V136.999C83.8864 136.665 83.8279 136.403 83.7109 136.212C83.5939 136.021 83.4422 135.887 83.2559 135.809C83.0739 135.727 82.8789 135.686 82.6709 135.686C82.4846 135.686 82.2896 135.722 82.0859 135.796C81.8866 135.87 81.7154 135.991 81.5724 136.16C81.4337 136.329 81.3644 136.557 81.3644 136.843V141.23H79.7849V136.745C79.7849 136.511 79.7242 136.316 79.6029 136.16C79.4816 136.004 79.3277 135.887 79.1414 135.809C78.9594 135.727 78.7731 135.686 78.5824 135.686C78.3874 135.686 78.1881 135.727 77.9844 135.809C77.7851 135.891 77.6182 136.017 77.4839 136.186C77.3496 136.355 77.2824 136.574 77.2824 136.843V141.23H75.7029Z" fill="#525D73"/>
<path d="M36.3398 154.93V148.098H40.7057L40.701 148.967H37.3698V151.079H40.3324V151.939H37.3698V154.93H36.3398ZM43.3937 154.93L41.4139 148.098H42.4251L43.8709 153.286L45.3357 148.098H46.1106L47.5753 153.286L49.0401 148.098H50.0465L48.0478 154.93H47.1595L45.7184 149.86L44.2584 154.93H43.3937Z" fill="white"/>
<path d="M141.863 114.92L138.113 112.755L138.113 117.085L141.863 114.92ZM83.3625 115.295L138.488 115.295L138.488 114.545L83.3625 114.545L83.3625 115.295Z" fill="#858D9D"/>
<circle id="server1" cx="181.856" cy="105.22" r="26.46" fill="#D7EAFF" class="server-circle"/>
<path d="M174.424 99.4298H174.435M174.424 110.294H174.435M172.237 95.8086H189.737C190.945 95.8086 191.924 96.6192 191.924 97.6192V101.24C191.924 102.24 190.945 103.051 189.737 103.051H172.237C171.028 103.051 170.049 102.24 170.049 101.24V97.6192C170.049 96.6192 171.028 95.8086 172.237 95.8086ZM172.237 106.672H189.737C190.945 106.672 191.924 107.483 191.924 108.483V112.104C191.924 113.104 190.945 113.915 189.737 113.915H172.237C171.028 113.915 170.049 113.104 170.049 112.104V108.483C170.049 107.483 171.028 106.672 172.237 106.672Z" stroke="#1873DE" stroke-width="1.81062" stroke-linecap="round" stroke-linejoin="round"/>
<path d="M151 148.08L151.007 138.681H152.606V146.715H156.85V148.08H151ZM160.893 148.21C160.252 148.21 159.693 148.074 159.216 147.801C158.739 147.523 158.369 147.127 158.105 146.611C157.845 146.096 157.715 145.476 157.715 144.752C157.715 144.05 157.842 143.435 158.098 142.906C158.354 142.378 158.718 141.966 159.19 141.671C159.667 141.377 160.237 141.229 160.9 141.229C161.541 141.229 162.098 141.37 162.57 141.652C163.042 141.933 163.406 142.336 163.662 142.861C163.922 143.385 164.052 144.016 164.052 144.752C164.052 145.433 163.929 146.033 163.682 146.553C163.439 147.068 163.081 147.474 162.609 147.768C162.141 148.063 161.569 148.21 160.893 148.21ZM160.9 147.008C161.264 147.008 161.563 146.908 161.797 146.709C162.035 146.509 162.213 146.236 162.33 145.89C162.447 145.543 162.505 145.149 162.505 144.707C162.505 144.295 162.453 143.916 162.349 143.569C162.245 143.223 162.074 142.945 161.836 142.737C161.602 142.525 161.29 142.419 160.9 142.419C160.531 142.419 160.226 142.516 159.983 142.711C159.745 142.902 159.567 143.171 159.45 143.517C159.333 143.86 159.275 144.256 159.275 144.707C159.275 145.114 159.327 145.493 159.431 145.844C159.535 146.191 159.706 146.473 159.944 146.689C160.182 146.902 160.501 147.008 160.9 147.008ZM165.499 148.08V141.359H167.013V142.815C167.122 142.482 167.275 142.198 167.475 141.964C167.678 141.725 167.917 141.543 168.19 141.418C168.463 141.292 168.76 141.229 169.08 141.229C169.158 141.229 169.234 141.234 169.308 141.242C169.381 141.251 169.436 141.266 169.47 141.288V142.802C169.423 142.781 169.36 142.765 169.282 142.757C169.208 142.748 169.143 142.744 169.087 142.744C168.762 142.718 168.474 142.731 168.222 142.783C167.975 142.835 167.765 142.924 167.592 143.049C167.423 143.171 167.295 143.327 167.208 143.517C167.122 143.704 167.078 143.922 167.078 144.174V148.08H165.499ZM173.649 148.21C173.003 148.21 172.433 148.074 171.939 147.801C171.45 147.523 171.066 147.129 170.789 146.618C170.516 146.106 170.379 145.498 170.379 144.791C170.379 144.102 170.503 143.491 170.75 142.958C171.001 142.421 171.363 141.998 171.835 141.691C172.312 141.383 172.886 141.229 173.558 141.229C174.221 141.229 174.778 141.37 175.228 141.652C175.679 141.933 176.021 142.328 176.255 142.835C176.489 143.337 176.606 143.927 176.606 144.603V145.084H171.959C171.955 145.465 172.015 145.803 172.141 146.098C172.267 146.392 172.453 146.624 172.7 146.793C172.947 146.958 173.252 147.04 173.616 147.04C173.989 147.04 174.312 146.958 174.585 146.793C174.862 146.624 175.046 146.369 175.137 146.026H176.58C176.502 146.494 176.316 146.891 176.021 147.216C175.731 147.541 175.376 147.788 174.955 147.957C174.539 148.126 174.104 148.21 173.649 148.21ZM171.952 144.102H175.111C175.111 143.777 175.053 143.485 174.936 143.225C174.823 142.96 174.652 142.752 174.422 142.601C174.193 142.445 173.902 142.367 173.551 142.367C173.205 142.367 172.912 142.451 172.674 142.62C172.436 142.789 172.256 143.008 172.134 143.277C172.013 143.541 171.952 143.816 171.952 144.102ZM178.118 148.08V141.359H179.658V142.321C179.853 142.027 180.118 141.771 180.451 141.554C180.789 141.338 181.218 141.229 181.738 141.229C181.977 141.229 182.217 141.27 182.46 141.353C182.707 141.435 182.934 141.556 183.142 141.717C183.355 141.877 183.524 142.076 183.649 142.315C183.862 141.998 184.143 141.738 184.494 141.535C184.85 141.331 185.248 141.229 185.69 141.229C185.933 141.229 186.182 141.268 186.438 141.346C186.698 141.424 186.936 141.554 187.153 141.736C187.37 141.918 187.545 142.167 187.679 142.484C187.814 142.796 187.881 143.188 187.881 143.66V148.08H186.301V143.849C186.301 143.515 186.243 143.253 186.126 143.062C186.009 142.872 185.857 142.737 185.671 142.659C185.489 142.577 185.294 142.536 185.086 142.536C184.9 142.536 184.705 142.573 184.501 142.646C184.302 142.72 184.13 142.841 183.987 143.01C183.849 143.179 183.779 143.407 183.779 143.693V148.08H182.2V143.595C182.2 143.361 182.139 143.166 182.018 143.01C181.897 142.854 181.743 142.737 181.556 142.659C181.374 142.577 181.188 142.536 180.997 142.536C180.802 142.536 180.603 142.577 180.399 142.659C180.2 142.742 180.033 142.867 179.899 143.036C179.765 143.205 179.697 143.424 179.697 143.693V148.08H178.118ZM189.608 148.08V141.359H191.122V148.08H189.608ZM189.582 140.183V138.688H191.148V140.183H189.582ZM192.997 150.173V141.359H194.576L194.589 142.419C194.676 142.271 194.787 142.126 194.921 141.983C195.06 141.84 195.218 141.712 195.395 141.6C195.577 141.487 195.779 141.398 196 141.333C196.221 141.264 196.464 141.229 196.728 141.229C197.244 141.229 197.701 141.353 198.099 141.6C198.498 141.842 198.81 142.217 199.035 142.724C199.265 143.231 199.38 143.873 199.38 144.648C199.38 145.441 199.263 146.102 199.029 146.631C198.795 147.159 198.468 147.556 198.047 147.82C197.627 148.08 197.14 148.21 196.585 148.21C196.329 148.21 196.095 148.176 195.883 148.106C195.675 148.037 195.489 147.942 195.324 147.82C195.159 147.699 195.014 147.567 194.888 147.424C194.767 147.281 194.665 147.131 194.583 146.975V150.173H192.997ZM196.234 147.027C196.711 147.027 197.105 146.839 197.417 146.462C197.729 146.08 197.885 145.485 197.885 144.674C197.885 143.972 197.738 143.42 197.443 143.017C197.153 142.609 196.75 142.406 196.234 142.406C195.679 142.406 195.263 142.62 194.986 143.049C194.709 143.474 194.57 144.016 194.57 144.674C194.57 145.099 194.631 145.491 194.752 145.851C194.878 146.206 195.062 146.492 195.304 146.709C195.551 146.921 195.861 147.027 196.234 147.027ZM203.366 148.21C202.898 148.21 202.454 148.137 202.033 147.989C201.617 147.838 201.266 147.601 200.98 147.281C200.699 146.96 200.521 146.546 200.447 146.039H201.838C201.899 146.286 202.005 146.488 202.157 146.644C202.313 146.8 202.495 146.915 202.703 146.988C202.915 147.058 203.134 147.092 203.359 147.092C203.762 147.092 204.087 147.023 204.334 146.884C204.581 146.746 204.705 146.531 204.705 146.241C204.705 146.028 204.635 145.859 204.497 145.734C204.362 145.608 204.141 145.513 203.834 145.448L202.56 145.155C201.988 145.03 201.531 144.822 201.188 144.531C200.846 144.241 200.673 143.831 200.668 143.303C200.664 142.904 200.764 142.549 200.967 142.237C201.171 141.925 201.474 141.68 201.877 141.502C202.28 141.32 202.776 141.229 203.366 141.229C204.15 141.229 204.778 141.405 205.251 141.756C205.727 142.102 205.972 142.599 205.985 143.244H204.64C204.592 142.954 204.456 142.729 204.23 142.568C204.005 142.404 203.712 142.321 203.353 142.321C202.98 142.321 202.675 142.393 202.436 142.536C202.198 142.679 202.079 142.898 202.079 143.192C202.079 143.396 202.168 143.556 202.345 143.673C202.527 143.79 202.802 143.89 203.171 143.972L204.38 144.265C204.726 144.351 205.01 144.468 205.231 144.616C205.452 144.763 205.623 144.926 205.745 145.103C205.87 145.277 205.957 145.456 206.005 145.643C206.057 145.825 206.083 145.994 206.083 146.15C206.083 146.583 205.97 146.954 205.745 147.261C205.524 147.565 205.21 147.799 204.802 147.963C204.399 148.128 203.92 148.21 203.366 148.21ZM209.99 148.21C209.661 148.21 209.342 148.163 209.035 148.067C208.731 147.968 208.458 147.825 208.216 147.638C207.973 147.448 207.78 147.214 207.637 146.936C207.494 146.659 207.423 146.336 207.423 145.968V141.359H209.009V145.786C209.009 146.15 209.124 146.449 209.353 146.683C209.587 146.917 209.938 147.034 210.406 147.034C210.831 147.034 211.171 146.923 211.427 146.702C211.682 146.477 211.81 146.154 211.81 145.734V141.359H213.383V148.08H212.168L211.992 146.767C211.91 147.136 211.765 147.426 211.557 147.638C211.353 147.846 211.113 147.994 210.835 148.08C210.562 148.167 210.281 148.21 209.99 148.21Z" fill="#525D73"/>
<path d="M281.363 114.92L277.613 112.755L277.613 117.085L281.363 114.92ZM222.863 115.295L277.988 115.295L277.988 114.545L222.863 114.545L222.863 115.295Z" fill="#858D9D"/>
<circle id="server2" cx="321.356" cy="105.22" r="26.46" fill="#D7EAFF" class="server-circle"/>
<path d="M313.924 99.4298H313.935M313.924 110.294H313.935M311.737 95.8086H329.237C330.445 95.8086 331.424 96.6192 331.424 97.6192V101.24C331.424 102.24 330.445 103.051 329.237 103.051H311.737C310.528 103.051 309.549 102.24 309.549 101.24V97.6192C309.549 96.6192 310.528 95.8086 311.737 95.8086ZM311.737 106.672H329.237C330.445 106.672 331.424 107.483 331.424 108.483V112.104C331.424 113.104 330.445 113.915 329.237 113.915H311.737C310.528 113.915 309.549 113.104 309.549 112.104V108.483C309.549 107.483 310.528 106.672 311.737 106.672Z" stroke="#1873DE" stroke-width="1.81062" stroke-linecap="round" stroke-linejoin="round"/>
<path d="M290.5 148.08L290.507 138.681H292.106V146.715H296.35V148.08H290.5ZM300.393 148.21C299.752 148.21 299.193 148.074 298.716 147.801C298.239 147.523 297.869 147.127 297.605 146.611C297.345 146.096 297.215 145.476 297.215 144.752C297.215 144.05 297.342 143.435 297.598 142.906C297.854 142.378 298.218 141.966 298.69 141.671C299.167 141.377 299.737 141.229 300.4 141.229C301.041 141.229 301.598 141.37 302.07 141.652C302.542 141.933 302.906 142.336 303.162 142.861C303.422 143.385 303.552 144.016 303.552 144.752C303.552 145.433 303.429 146.033 303.182 146.553C302.939 147.068 302.581 147.474 302.109 147.768C301.641 148.063 301.069 148.21 300.393 148.21ZM300.4 147.008C300.764 147.008 301.063 146.908 301.297 146.709C301.535 146.509 301.713 146.236 301.83 145.89C301.947 145.543 302.005 145.149 302.005 144.707C302.005 144.295 301.953 143.916 301.849 143.569C301.745 143.223 301.574 142.945 301.336 142.737C301.102 142.525 300.79 142.419 300.4 142.419C300.031 142.419 299.726 142.516 299.483 142.711C299.245 142.902 299.067 143.171 298.95 143.517C298.833 143.86 298.775 144.256 298.775 144.707C298.775 145.114 298.827 145.493 298.931 145.844C299.035 146.191 299.206 146.473 299.444 146.689C299.682 146.902 300.001 147.008 300.4 147.008ZM304.999 148.08V141.359H306.513V142.815C306.622 142.482 306.775 142.198 306.975 141.964C307.178 141.725 307.417 141.543 307.69 141.418C307.963 141.292 308.26 141.229 308.58 141.229C308.658 141.229 308.734 141.234 308.808 141.242C308.881 141.251 308.936 141.266 308.97 141.288V142.802C308.923 142.781 308.86 142.765 308.782 142.757C308.708 142.748 308.643 142.744 308.587 142.744C308.262 142.718 307.974 142.731 307.722 142.783C307.475 142.835 307.265 142.924 307.092 143.049C306.923 143.171 306.795 143.327 306.708 143.517C306.622 143.704 306.578 143.922 306.578 144.174V148.08H304.999ZM313.149 148.21C312.503 148.21 311.933 148.074 311.439 147.801C310.95 147.523 310.566 147.129 310.289 146.618C310.016 146.106 309.879 145.498 309.879 144.791C309.879 144.102 310.003 143.491 310.25 142.958C310.501 142.421 310.863 141.998 311.335 141.691C311.812 141.383 312.386 141.229 313.058 141.229C313.721 141.229 314.278 141.37 314.728 141.652C315.179 141.933 315.521 142.328 315.755 142.835C315.989 143.337 316.106 143.927 316.106 144.603V145.084H311.459C311.455 145.465 311.515 145.803 311.641 146.098C311.767 146.392 311.953 146.624 312.2 146.793C312.447 146.958 312.752 147.04 313.116 147.04C313.489 147.04 313.812 146.958 314.085 146.793C314.362 146.624 314.546 146.369 314.637 146.026H316.08C316.002 146.494 315.816 146.891 315.521 147.216C315.231 147.541 314.876 147.788 314.455 147.957C314.039 148.126 313.604 148.21 313.149 148.21ZM311.452 144.102H314.611C314.611 143.777 314.553 143.485 314.436 143.225C314.323 142.96 314.152 142.752 313.922 142.601C313.693 142.445 313.402 142.367 313.051 142.367C312.705 142.367 312.412 142.451 312.174 142.62C311.936 142.789 311.756 143.008 311.634 143.277C311.513 143.541 311.452 143.816 311.452 144.102ZM317.618 148.08V141.359H319.158V142.321C319.353 142.027 319.618 141.771 319.951 141.554C320.289 141.338 320.718 141.229 321.238 141.229C321.477 141.229 321.717 141.27 321.96 141.353C322.207 141.435 322.434 141.556 322.642 141.717C322.855 141.877 323.024 142.076 323.149 142.315C323.362 141.998 323.643 141.738 323.994 141.535C324.35 141.331 324.748 141.229 325.19 141.229C325.433 141.229 325.682 141.268 325.938 141.346C326.198 141.424 326.436 141.554 326.653 141.736C326.87 141.918 327.045 142.167 327.179 142.484C327.314 142.796 327.381 143.188 327.381 143.66V148.08H325.801V143.849C325.801 143.515 325.743 143.253 325.626 143.062C325.509 142.872 325.357 142.737 325.171 142.659C324.989 142.577 324.794 142.536 324.586 142.536C324.4 142.536 324.205 142.573 324.001 142.646C323.802 142.72 323.63 142.841 323.487 143.01C323.349 143.179 323.279 143.407 323.279 143.693V148.08H321.7V143.595C321.7 143.361 321.639 143.166 321.518 143.01C321.397 142.854 321.243 142.737 321.056 142.659C320.874 142.577 320.688 142.536 320.497 142.536C320.302 142.536 320.103 142.577 319.899 142.659C319.7 142.742 319.533 142.867 319.399 143.036C319.265 143.205 319.197 143.424 319.197 143.693V148.08H317.618ZM329.108 148.08V141.359H330.622V148.08H329.108ZM329.082 140.183V138.688H330.648V140.183H329.082ZM332.497 150.173V141.359H334.076L334.089 142.419C334.176 142.271 334.287 142.126 334.421 141.983C334.56 141.84 334.718 141.712 334.895 141.6C335.077 141.487 335.279 141.398 335.5 141.333C335.721 141.264 335.964 141.229 336.228 141.229C336.744 141.229 337.201 141.353 337.599 141.6C337.998 141.842 338.31 142.217 338.535 142.724C338.765 143.231 338.88 143.873 338.88 144.648C338.88 145.441 338.763 146.102 338.529 146.631C338.295 147.159 337.968 147.556 337.547 147.82C337.127 148.08 336.64 148.21 336.085 148.21C335.829 148.21 335.595 148.176 335.383 148.106C335.175 148.037 334.989 147.942 334.824 147.82C334.659 147.699 334.514 147.567 334.388 147.424C334.267 147.281 334.165 147.131 334.083 146.975V150.173H332.497ZM335.734 147.027C336.211 147.027 336.605 146.839 336.917 146.462C337.229 146.08 337.385 145.485 337.385 144.674C337.385 143.972 337.238 143.42 336.943 143.017C336.653 142.609 336.25 142.406 335.734 142.406C335.179 142.406 334.763 142.62 334.486 143.049C334.209 143.474 334.07 144.016 334.07 144.674C334.07 145.099 334.131 145.491 334.252 145.851C334.378 146.206 334.562 146.492 334.804 146.709C335.051 146.921 335.361 147.027 335.734 147.027ZM342.866 148.21C342.398 148.21 341.954 148.137 341.533 147.989C341.117 147.838 340.766 147.601 340.48 147.281C340.199 146.96 340.021 146.546 339.947 146.039H341.338C341.399 146.286 341.505 146.488 341.657 146.644C341.813 146.8 341.995 146.915 342.203 146.988C342.415 147.058 342.634 147.092 342.859 147.092C343.262 147.092 343.587 147.023 343.834 146.884C344.081 146.746 344.205 146.531 344.205 146.241C344.205 146.028 344.135 145.859 343.997 145.734C343.862 145.608 343.641 145.513 343.334 145.448L342.06 145.155C341.488 145.03 341.031 144.822 340.688 144.531C340.346 144.241 340.173 143.831 340.168 143.303C340.164 142.904 340.264 142.549 340.467 142.237C340.671 141.925 340.974 141.68 341.377 141.502C341.78 141.32 342.276 141.229 342.866 141.229C343.65 141.229 344.278 141.405 344.751 141.756C345.227 142.102 345.472 142.599 345.485 143.244H344.14C344.092 142.954 343.956 142.729 343.73 142.568C343.505 142.404 343.212 142.321 342.853 142.321C342.48 142.321 342.175 142.393 341.936 142.536C341.698 142.679 341.579 142.898 341.579 143.192C341.579 143.396 341.668 143.556 341.845 143.673C342.027 143.79 342.302 143.89 342.671 143.972L343.88 144.265C344.226 144.351 344.51 144.468 344.731 144.616C344.952 144.763 345.123 144.926 345.245 145.103C345.37 145.277 345.457 145.456 345.505 145.643C345.557 145.825 345.583 145.994 345.583 146.15C345.583 146.583 345.47 146.954 345.245 147.261C345.024 147.565 344.71 147.799 344.302 147.963C343.899 148.128 343.42 148.21 342.866 148.21ZM349.49 148.21C349.161 148.21 348.842 148.163 348.535 148.067C348.231 147.968 347.958 147.825 347.716 147.638C347.473 147.448 347.28 147.214 347.137 146.936C346.994 146.659 346.923 146.336 346.923 145.968V141.359H348.509V145.786C348.509 146.15 348.624 146.449 348.853 146.683C349.087 146.917 349.438 147.034 349.906 147.034C350.331 147.034 350.671 146.923 350.927 146.702C351.182 146.477 351.31 146.154 351.31 145.734V141.359H352.883V148.08H351.668L351.492 146.767C351.41 147.136 351.265 147.426 351.057 147.638C350.853 147.846 350.613 147.994 350.335 148.08C350.062 148.167 349.781 148.21 349.49 148.21Z" fill="#525D73"/>
<path d="M570.363 62.561L566.613 64.7261L566.613 60.396L570.363 62.561ZM443.194 115.936L362.363 115.936L362.363 115.186L443.194 115.186L443.194 115.936ZM566.988 62.936L507.158 62.936L507.158 62.186L566.988 62.186L566.988 62.936ZM489.866 71.2585L461.072 107.331L460.486 106.864L489.28 70.7907L489.866 71.2585ZM507.158 62.936C500.428 62.936 494.064 65.9989 489.866 71.2585L489.28 70.7907C493.62 65.3528 500.2 62.186 507.158 62.186L507.158 62.936ZM443.194 115.186C449.924 115.186 456.288 112.123 460.486 106.864L461.072 107.331C456.732 112.769 450.152 115.936 443.194 115.936L443.194 115.186Z" fill="#858D9D"/>
<path d="M570.363 167.279L566.613 165.114L566.613 169.444L570.363 167.279ZM443.323 114.904L362.363 114.904L362.363 115.654L443.323 115.654L443.323 114.904ZM566.988 166.904L507.029 166.904L507.029 167.654L566.988 167.654L566.988 166.904ZM489.867 158.742L461.067 123.343L460.486 123.816L489.285 159.215L489.867 158.742ZM507.029 166.904C500.372 166.904 494.068 163.906 489.867 158.742L489.285 159.215C493.629 164.554 500.146 167.654 507.029 167.654L507.029 166.904ZM443.323 115.654C449.981 115.654 456.284 118.652 460.486 123.816L461.067 123.343C456.724 118.003 450.206 114.904 443.323 114.904L443.323 115.654Z" fill="#858D9D"/>
<circle id="server4" cx="610.863" cy="35.9101" r="26.46" fill="#D7EAFF" class="server-circle"/>
<path d="M603.924 30.4298H603.935M603.924 41.2936H603.935M601.737 26.8086H619.237C620.445 26.8086 621.424 27.6192 621.424 28.6192V32.2405C621.424 33.2405 620.445 34.0511 619.237 34.0511H601.737C600.528 34.0511 599.549 33.2405 599.549 32.2405V28.6192C599.549 27.6192 600.528 26.8086 601.737 26.8086ZM601.737 37.6724H619.237C620.445 37.6724 621.424 38.483 621.424 39.483V43.1042C621.424 44.1042 620.445 44.9149 619.237 44.9149H601.737C600.528 44.9149 599.549 44.1042 599.549 43.1042V39.483C599.549 38.483 600.528 37.6724 601.737 37.6724Z" stroke="#1873DE" stroke-width="1.81062" stroke-linecap="round" stroke-linejoin="round"/>
<rect x="621.363" y="3.99988" width="22" height="22" rx="11" fill="#E6372B"/>
<path d="M634.425 13.4341L631.3 16.8196M631.3 13.4341L634.425 16.8196M637.862 15.8039C637.862 19.1894 635.675 20.8821 633.075 21.8638C632.939 21.9138 632.791 21.9114 632.656 21.8571C630.05 20.8821 627.862 19.1894 627.862 15.8039V11.0644C627.862 10.8848 627.928 10.7126 628.045 10.5856C628.163 10.4586 628.322 10.3873 628.487 10.3873C629.737 10.3873 631.3 9.57477 632.387 8.5456C632.52 8.42305 632.688 8.35571 632.862 8.35571C633.036 8.35571 633.205 8.42305 633.337 8.5456C634.431 9.58154 635.987 10.3873 637.237 10.3873C637.403 10.3873 637.562 10.4586 637.679 10.5856C637.796 10.7126 637.862 10.8848 637.862 11.0644V15.8039Z" stroke="#FFF8F7" stroke-width="0.739568" stroke-linecap="round" stroke-linejoin="round"/>
<path d="M550.5 78.7701L550.507 69.3711H552.106V77.4051H556.35V78.7701H550.5ZM560.393 78.9001C559.752 78.9001 559.193 78.7636 558.716 78.4906C558.239 78.2133 557.869 77.8168 557.605 77.3011C557.345 76.7855 557.215 76.1658 557.215 75.4421C557.215 74.7401 557.342 74.1248 557.598 73.5961C557.854 73.0675 558.218 72.6558 558.69 72.3611C559.167 72.0665 559.737 71.9191 560.4 71.9191C561.041 71.9191 561.598 72.06 562.07 72.3416C562.542 72.6233 562.906 73.0263 563.162 73.5506C563.422 74.075 563.552 74.7055 563.552 75.4421C563.552 76.1225 563.429 76.7226 563.182 77.2426C562.939 77.7583 562.581 78.1635 562.109 78.4581C561.641 78.7528 561.069 78.9001 560.393 78.9001ZM560.4 77.6976C560.764 77.6976 561.063 77.598 561.297 77.3986C561.535 77.1993 561.713 76.9263 561.83 76.5796C561.947 76.233 562.005 75.8386 562.005 75.3966C562.005 74.985 561.953 74.6058 561.849 74.2591C561.745 73.9125 561.574 73.6351 561.336 73.4271C561.102 73.2148 560.79 73.1086 560.4 73.1086C560.031 73.1086 559.726 73.2061 559.483 73.4011C559.245 73.5918 559.067 73.8605 558.95 74.2071C558.833 74.5495 558.775 74.946 558.775 75.3966C558.775 75.804 558.827 76.1831 558.931 76.5341C559.035 76.8808 559.206 77.1625 559.444 77.3791C559.682 77.5915 560.001 77.6976 560.4 77.6976ZM564.999 78.7701V72.0491H566.513V73.5051C566.622 73.1715 566.775 72.8876 566.975 72.6536C567.178 72.4153 567.417 72.2333 567.69 72.1076C567.963 71.982 568.26 71.9191 568.58 71.9191C568.658 71.9191 568.734 71.9235 568.808 71.9321C568.881 71.9408 568.936 71.956 568.97 71.9776V73.4921C568.923 73.4705 568.86 73.4553 568.782 73.4466C568.708 73.438 568.643 73.4336 568.587 73.4336C568.262 73.4076 567.974 73.4206 567.722 73.4726C567.475 73.5246 567.265 73.6135 567.092 73.7391C566.923 73.8605 566.795 74.0165 566.708 74.2071C566.622 74.3935 566.578 74.6123 566.578 74.8636V78.7701H564.999ZM573.149 78.9001C572.503 78.9001 571.933 78.7636 571.439 78.4906C570.95 78.2133 570.566 77.819 570.289 77.3076C570.016 76.7963 569.879 76.1875 569.879 75.4811C569.879 74.7921 570.003 74.1811 570.25 73.6481C570.501 73.1108 570.863 72.6883 571.335 72.3806C571.812 72.073 572.386 71.9191 573.058 71.9191C573.721 71.9191 574.278 72.06 574.728 72.3416C575.179 72.6233 575.521 73.0176 575.755 73.5246C575.989 74.0273 576.106 74.6166 576.106 75.2926V75.7736H571.459C571.455 76.155 571.515 76.493 571.641 76.7876C571.767 77.0823 571.953 77.3141 572.2 77.4831C572.447 77.6478 572.752 77.7301 573.116 77.7301C573.489 77.7301 573.812 77.6478 574.085 77.4831C574.362 77.3141 574.546 77.0585 574.637 76.7161H576.08C576.002 77.1841 575.816 77.5806 575.521 77.9056C575.231 78.2306 574.876 78.4776 574.455 78.6466C574.039 78.8156 573.604 78.9001 573.149 78.9001ZM571.452 74.7921H574.611C574.611 74.4671 574.553 74.1746 574.436 73.9146C574.323 73.6503 574.152 73.4423 573.922 73.2906C573.693 73.1346 573.402 73.0566 573.051 73.0566C572.705 73.0566 572.412 73.1411 572.174 73.3101C571.936 73.4791 571.756 73.698 571.634 73.9666C571.513 74.231 571.452 74.5061 571.452 74.7921ZM577.618 78.7701V72.0491H579.158V73.0111C579.353 72.7165 579.618 72.4608 579.951 72.2441C580.289 72.0275 580.718 71.9191 581.238 71.9191C581.477 71.9191 581.717 71.9603 581.96 72.0426C582.207 72.125 582.434 72.2463 582.642 72.4066C582.855 72.567 583.024 72.7663 583.149 73.0046C583.362 72.6883 583.643 72.4283 583.994 72.2246C584.35 72.021 584.748 71.9191 585.19 71.9191C585.433 71.9191 585.682 71.9581 585.938 72.0361C586.198 72.1141 586.436 72.2441 586.653 72.4261C586.87 72.6081 587.045 72.8573 587.179 73.1736C587.314 73.4856 587.381 73.8778 587.381 74.3501V78.7701H585.801V74.5386C585.801 74.205 585.743 73.9428 585.626 73.7521C585.509 73.5615 585.357 73.4271 585.171 73.3491C584.989 73.2668 584.794 73.2256 584.586 73.2256C584.4 73.2256 584.205 73.2625 584.001 73.3361C583.802 73.4098 583.63 73.5311 583.487 73.7001C583.349 73.8691 583.279 74.0966 583.279 74.3826V78.7701H581.7V74.2851C581.7 74.0511 581.639 73.8561 581.518 73.7001C581.397 73.5441 581.243 73.4271 581.056 73.3491C580.874 73.2668 580.688 73.2256 580.497 73.2256C580.302 73.2256 580.103 73.2668 579.899 73.3491C579.7 73.4315 579.533 73.5571 579.399 73.7261C579.265 73.8951 579.197 74.114 579.197 74.3826V78.7701H577.618ZM589.108 78.7701V72.0491H590.622V78.7701H589.108ZM589.082 70.8726V69.3776H590.648V70.8726H589.082ZM592.497 80.8631V72.0491H594.076L594.089 73.1086C594.176 72.9613 594.287 72.8161 594.421 72.6731C594.56 72.5301 594.718 72.4023 594.895 72.2896C595.077 72.177 595.279 72.0881 595.5 72.0231C595.721 71.9538 595.964 71.9191 596.228 71.9191C596.744 71.9191 597.201 72.0426 597.599 72.2896C597.998 72.5323 598.31 72.9071 598.535 73.4141C598.765 73.9211 598.88 74.5625 598.88 75.3381C598.88 76.1311 598.763 76.792 598.529 77.3206C598.295 77.8493 597.968 78.2458 597.547 78.5101C597.127 78.7701 596.64 78.9001 596.085 78.9001C595.829 78.9001 595.595 78.8655 595.383 78.7961C595.175 78.7268 594.989 78.6315 594.824 78.5101C594.659 78.3888 594.514 78.2566 594.388 78.1136C594.267 77.9706 594.165 77.8211 594.083 77.6651V80.8631H592.497ZM595.734 77.7171C596.211 77.7171 596.605 77.5286 596.917 77.1516C597.229 76.7703 597.385 76.1745 597.385 75.3641C597.385 74.6621 597.238 74.1096 596.943 73.7066C596.653 73.2993 596.25 73.0956 595.734 73.0956C595.179 73.0956 594.763 73.3101 594.486 73.7391C594.209 74.1638 594.07 74.7055 594.07 75.3641C594.07 75.7888 594.131 76.181 594.252 76.5406C594.378 76.896 594.562 77.182 594.804 77.3986C595.051 77.611 595.361 77.7171 595.734 77.7171ZM602.866 78.9001C602.398 78.9001 601.954 78.8265 601.533 78.6791C601.117 78.5275 600.766 78.2913 600.48 77.9706C600.199 77.65 600.021 77.2361 599.947 76.7291H601.338C601.399 76.9761 601.505 77.1776 601.657 77.3336C601.813 77.4896 601.995 77.6045 602.203 77.6781C602.415 77.7475 602.634 77.7821 602.859 77.7821C603.262 77.7821 603.587 77.7128 603.834 77.5741C604.081 77.4355 604.205 77.221 604.205 76.9306C604.205 76.7183 604.135 76.5493 603.997 76.4236C603.862 76.298 603.641 76.2026 603.334 76.1376L602.06 75.8451C601.488 75.7195 601.031 75.5115 600.688 75.2211C600.346 74.9308 600.173 74.5213 600.168 73.9926C600.164 73.594 600.264 73.2386 600.467 72.9266C600.671 72.6146 600.974 72.3698 601.377 72.1921C601.78 72.0101 602.276 71.9191 602.866 71.9191C603.65 71.9191 604.278 72.0946 604.751 72.4456C605.227 72.7923 605.472 73.2885 605.485 73.9341H604.14C604.092 73.6438 603.956 73.4185 603.73 73.2581C603.505 73.0935 603.212 73.0111 602.853 73.0111C602.48 73.0111 602.175 73.0826 601.936 73.2256C601.698 73.3686 601.579 73.5875 601.579 73.8821C601.579 74.0858 601.668 74.2461 601.845 74.3631C602.027 74.4801 602.302 74.5798 602.671 74.6621L603.88 74.9546C604.226 75.0413 604.51 75.1583 604.731 75.3056C604.952 75.453 605.123 75.6155 605.245 75.7931C605.37 75.9665 605.457 76.1463 605.505 76.3326C605.557 76.5146 605.583 76.6836 605.583 76.8396C605.583 77.273 605.47 77.6435 605.245 77.9511C605.024 78.2545 604.71 78.4885 604.302 78.6531C603.899 78.8178 603.42 78.9001 602.866 78.9001ZM609.49 78.9001C609.161 78.9001 608.842 78.8525 608.535 78.7571C608.231 78.6575 607.958 78.5145 607.716 78.3281C607.473 78.1375 607.28 77.9035 607.137 77.6261C606.994 77.3488 606.923 77.026 606.923 76.6576V72.0491H608.509V76.4756C608.509 76.8396 608.624 77.1386 608.853 77.3726C609.087 77.6066 609.438 77.7236 609.906 77.7236C610.331 77.7236 610.671 77.6131 610.927 77.3921C611.182 77.1668 611.31 76.844 611.31 76.4236V72.0491H612.883V78.7701H611.668L611.492 77.4571C611.41 77.8255 611.265 78.1158 611.057 78.3281C610.853 78.5361 610.613 78.6835 610.335 78.7701C610.062 78.8568 609.781 78.9001 609.49 78.9001ZM614.739 78.7701V72.0491H616.28V73.0111C616.475 72.7165 616.739 72.4608 617.073 72.2441C617.411 72.0275 617.84 71.9191 618.36 71.9191C618.598 71.9191 618.838 71.9603 619.081 72.0426C619.328 72.125 619.556 72.2463 619.764 72.4066C619.976 72.567 620.145 72.7663 620.271 73.0046C620.483 72.6883 620.765 72.4283 621.116 72.2246C621.471 72.021 621.87 71.9191 622.312 71.9191C622.554 71.9191 622.803 71.9581 623.059 72.0361C623.319 72.1141 623.557 72.2441 623.774 72.4261C623.991 72.6081 624.166 72.8573 624.301 73.1736C624.435 73.4856 624.502 73.8778 624.502 74.3501V78.7701H622.923V74.5386C622.923 74.205 622.864 73.9428 622.747 73.7521C622.63 73.5615 622.478 73.4271 622.292 73.3491C622.11 73.2668 621.915 73.2256 621.707 73.2256C621.521 73.2256 621.326 73.2625 621.122 73.3361C620.923 73.4098 620.752 73.5311 620.609 73.7001C620.47 73.8691 620.401 74.0966 620.401 74.3826V78.7701H618.821V74.2851C618.821 74.0511 618.76 73.8561 618.639 73.7001C618.518 73.5441 618.364 73.4271 618.178 73.3491C617.996 73.2668 617.809 73.2256 617.619 73.2256C617.424 73.2256 617.224 73.2668 617.021 73.3491C616.821 73.4315 616.654 73.5571 616.52 73.7261C616.386 73.8951 616.319 74.114 616.319 74.3826V78.7701H614.739ZM628.699 78.9001C627.811 78.9001 627.113 78.5946 626.606 77.9836C626.099 77.3726 625.845 76.5038 625.845 75.3771C625.845 74.6751 625.947 74.0663 626.151 73.5506C626.359 73.0306 626.664 72.6298 627.067 72.3481C627.47 72.0621 627.967 71.9191 628.556 71.9191C628.833 71.9191 629.085 71.9538 629.31 72.0231C629.54 72.0881 629.743 72.1748 629.921 72.2831C630.099 72.3915 630.248 72.5106 630.369 72.6406C630.495 72.7706 630.593 72.9006 630.662 73.0306V69.1111H632.254V78.7701H631.084L630.909 77.3921C630.853 77.5525 630.772 77.7215 630.668 77.8991C630.569 78.0725 630.432 78.235 630.259 78.3866C630.09 78.5383 629.878 78.6618 629.622 78.7571C629.366 78.8525 629.059 78.9001 628.699 78.9001ZM629.024 77.7366C629.592 77.7366 630.005 77.5525 630.265 77.1841C630.53 76.8115 630.662 76.1961 630.662 75.3381C630.658 74.8485 630.597 74.4368 630.48 74.1031C630.367 73.7695 630.194 73.5181 629.96 73.3491C629.726 73.1801 629.42 73.0956 629.043 73.0956C628.567 73.0956 628.175 73.2711 627.867 73.6221C627.564 73.9731 627.412 74.5451 627.412 75.3381C627.412 76.1268 627.553 76.7248 627.834 77.1321C628.116 77.5351 628.513 77.7366 629.024 77.7366ZM636.857 78.9001C636.216 78.9001 635.657 78.7636 635.18 78.4906C634.703 78.2133 634.333 77.8168 634.068 77.3011C633.808 76.7855 633.678 76.1658 633.678 75.4421C633.678 74.7401 633.806 74.1248 634.062 73.5961C634.318 73.0675 634.682 72.6558 635.154 72.3611C635.631 72.0665 636.2 71.9191 636.863 71.9191C637.505 71.9191 638.062 72.06 638.534 72.3416C639.006 72.6233 639.37 73.0263 639.626 73.5506C639.886 74.075 640.016 74.7055 640.016 75.4421C640.016 76.1225 639.892 76.7226 639.645 77.2426C639.403 77.7583 639.045 78.1635 638.573 78.4581C638.105 78.7528 637.533 78.9001 636.857 78.9001ZM636.863 77.6976C637.227 77.6976 637.526 77.598 637.76 77.3986C637.999 77.1993 638.176 76.9263 638.293 76.5796C638.41 76.233 638.469 75.8386 638.469 75.3966C638.469 74.985 638.417 74.6058 638.313 74.2591C638.209 73.9125 638.038 73.6351 637.799 73.4271C637.565 73.2148 637.253 73.1086 636.863 73.1086C636.495 73.1086 636.19 73.2061 635.947 73.4011C635.709 73.5918 635.531 73.8605 635.414 74.2071C635.297 74.5495 635.238 74.946 635.238 75.3966C635.238 75.804 635.29 76.1831 635.394 76.5341C635.498 76.8808 635.67 77.1625 635.908 77.3791C636.146 77.5915 636.465 77.6976 636.863 77.6976ZM643.4 78.8676C642.966 78.8676 642.62 78.8135 642.36 78.7051C642.1 78.5968 641.905 78.4516 641.775 78.2696C641.645 78.0876 641.56 77.884 641.521 77.6586C641.482 77.429 641.463 77.195 641.463 76.9566V69.1111H643.01V76.7746C643.01 77.065 643.068 77.2903 643.185 77.4506C643.307 77.611 643.502 77.7041 643.77 77.7301L644.108 77.7431V78.7376C643.991 78.7723 643.872 78.8026 643.751 78.8286C643.629 78.8546 643.512 78.8676 643.4 78.8676ZM648.054 78.9001C647.413 78.9001 646.854 78.7636 646.377 78.4906C645.901 78.2133 645.53 77.8168 645.266 77.3011C645.006 76.7855 644.876 76.1658 644.876 75.4421C644.876 74.7401 645.004 74.1248 645.259 73.5961C645.515 73.0675 645.879 72.6558 646.351 72.3611C646.828 72.0665 647.398 71.9191 648.061 71.9191C648.702 71.9191 649.259 72.06 649.731 72.3416C650.204 72.6233 650.568 73.0263 650.823 73.5506C651.083 74.075 651.213 74.7055 651.213 75.4421C651.213 76.1225 651.09 76.7226 650.843 77.2426C650.6 77.7583 650.243 78.1635 649.77 78.4581C649.302 78.7528 648.73 78.9001 648.054 78.9001ZM648.061 77.6976C648.425 77.6976 648.724 77.598 648.958 77.3986C649.196 77.1993 649.374 76.9263 649.491 76.5796C649.608 76.233 649.666 75.8386 649.666 75.3966C649.666 74.985 649.614 74.6058 649.51 74.2591C649.406 73.9125 649.235 73.6351 648.997 73.4271C648.763 73.2148 648.451 73.1086 648.061 73.1086C647.692 73.1086 647.387 73.2061 647.144 73.4011C646.906 73.5918 646.728 73.8605 646.611 74.2071C646.494 74.5495 646.436 74.946 646.436 75.3966C646.436 75.804 646.488 76.1831 646.592 76.5341C646.696 76.8808 646.867 77.1625 647.105 77.3791C647.344 77.5915 647.662 77.6976 648.061 77.6976ZM652.66 78.7701V72.0491H654.174V73.5051C654.283 73.1715 654.437 72.8876 654.636 72.6536C654.84 72.4153 655.078 72.2333 655.351 72.1076C655.624 71.982 655.921 71.9191 656.241 71.9191C656.319 71.9191 656.395 71.9235 656.469 71.9321C656.543 71.9408 656.597 71.956 656.631 71.9776V73.4921C656.584 73.4705 656.521 73.4553 656.443 73.4466C656.369 73.438 656.304 73.4336 656.248 73.4336C655.923 73.4076 655.635 73.4206 655.383 73.4726C655.136 73.5246 654.926 73.6135 654.753 73.7391C654.584 73.8605 654.456 74.0165 654.369 74.2071C654.283 74.3935 654.239 74.6123 654.239 74.8636V78.7701H652.66ZM660.439 78.9001C659.971 78.9001 659.527 78.8265 659.107 78.6791C658.691 78.5275 658.34 78.2913 658.054 77.9706C657.772 77.65 657.594 77.2361 657.521 76.7291H658.912C658.972 76.9761 659.078 77.1776 659.23 77.3336C659.386 77.4896 659.568 77.6045 659.776 77.6781C659.988 77.7475 660.207 77.7821 660.433 77.7821C660.836 77.7821 661.161 77.7128 661.408 77.5741C661.655 77.4355 661.778 77.221 661.778 76.9306C661.778 76.7183 661.709 76.5493 661.57 76.4236C661.436 76.298 661.215 76.2026 660.907 76.1376L659.633 75.8451C659.061 75.7195 658.604 75.5115 658.262 75.2211C657.919 74.9308 657.746 74.5213 657.742 73.9926C657.737 73.594 657.837 73.2386 658.041 72.9266C658.244 72.6146 658.548 72.3698 658.951 72.1921C659.354 72.0101 659.85 71.9191 660.439 71.9191C661.223 71.9191 661.852 72.0946 662.324 72.4456C662.801 72.7923 663.046 73.2885 663.059 73.9341H661.713C661.665 73.6438 661.529 73.4185 661.304 73.2581C661.078 73.0935 660.786 73.0111 660.426 73.0111C660.053 73.0111 659.748 73.0826 659.51 73.2256C659.271 73.3686 659.152 73.5875 659.152 73.8821C659.152 74.0858 659.241 74.2461 659.419 74.3631C659.601 74.4801 659.876 74.5798 660.244 74.6621L661.453 74.9546C661.8 75.0413 662.084 75.1583 662.305 75.3056C662.526 75.453 662.697 75.6155 662.818 75.7931C662.944 75.9665 663.03 76.1463 663.078 76.3326C663.13 76.5146 663.156 76.6836 663.156 76.8396C663.156 77.273 663.043 77.6435 662.818 77.9511C662.597 78.2545 662.283 78.4885 661.876 78.6531C661.473 78.8178 660.994 78.9001 660.439 78.9001ZM664.62 78.7701V72.0491H666.134V78.7701H664.62ZM664.594 70.8726V69.3776H666.16V70.8726H664.594ZM670.643 78.8221C670.11 78.8221 669.696 78.7528 669.401 78.6141C669.111 78.4711 668.909 78.2696 668.797 78.0096C668.684 77.7496 668.628 77.4398 668.628 77.0801V73.1671H667.536V72.0491H668.673L669.07 70.0536H670.207V72.0426H671.709V73.1671H670.207L670.214 77.0216C670.214 77.221 670.235 77.3683 670.279 77.4636C670.326 77.5546 670.4 77.6153 670.5 77.6456C670.604 77.6716 670.74 77.6846 670.909 77.6846H671.741V78.6856C671.65 78.7203 671.516 78.7506 671.338 78.7766C671.165 78.807 670.933 78.8221 670.643 78.8221Z" fill="#525D73"/>
<path d="M589.521 92.4701V87.1214H588.226V86.493C588.629 86.493 588.946 86.4615 589.176 86.3985C589.409 86.3323 589.576 86.2362 589.676 86.1102C589.78 85.9811 589.839 85.8236 589.851 85.6377H590.555V92.4701H589.521ZM594.483 92.574C594.092 92.574 593.728 92.5 593.391 92.352C593.054 92.2008 592.774 91.9897 592.55 91.7188C592.33 91.4448 592.197 91.1187 592.153 90.7407H593.127C593.199 91.04 593.352 91.2825 593.585 91.4684C593.821 91.6542 594.11 91.7472 594.45 91.7472C594.831 91.7472 595.16 91.6495 595.437 91.4542C595.714 91.2589 595.921 90.9549 596.056 90.5423C596.195 90.1296 596.247 89.5973 596.212 88.9452C596.13 89.1657 596.006 89.3595 595.839 89.5264C595.672 89.6902 595.473 89.8194 595.244 89.9139C595.014 90.0084 594.758 90.0556 594.478 90.0556C594.024 90.0556 593.624 89.9674 593.278 89.791C592.931 89.6146 592.661 89.3642 592.465 89.0397C592.27 88.7121 592.172 88.3215 592.172 87.8679C592.172 87.4143 592.27 87.0127 592.465 86.6631C592.664 86.3134 592.942 86.0394 593.302 85.8409C593.664 85.6425 594.092 85.5432 594.587 85.5432C595.129 85.5432 595.598 85.6803 595.995 85.9543C596.392 86.2284 596.697 86.619 596.911 87.1261C597.126 87.6333 597.233 88.2381 597.233 88.9405C597.233 89.7217 597.126 90.3832 596.911 90.925C596.697 91.4637 596.384 91.8732 595.971 92.1535C595.562 92.4339 595.066 92.574 594.483 92.574ZM594.61 89.2146C594.847 89.2146 595.072 89.161 595.286 89.0539C595.5 88.9468 595.675 88.8051 595.811 88.6287C595.949 88.4491 596.018 88.257 596.018 88.0522C596.022 87.712 595.963 87.4143 595.844 87.1592C595.727 86.904 595.562 86.7056 595.347 86.5638C595.136 86.4189 594.888 86.3465 594.601 86.3465C594.343 86.3465 594.113 86.4095 593.911 86.5355C593.709 86.6583 593.55 86.8316 593.434 87.0552C593.32 87.2757 593.264 87.5309 593.264 87.8207C593.264 88.2522 593.38 88.5924 593.613 88.8413C593.846 89.0901 594.179 89.2146 594.61 89.2146ZM598.251 92.4701V91.8984V91.596C598.251 91.2495 598.316 90.9486 598.445 90.6935C598.577 90.4383 598.751 90.2163 598.965 90.0273C599.179 89.8351 599.414 89.665 599.669 89.517C599.927 89.3689 600.184 89.2272 600.439 89.0917C600.694 88.9563 600.929 88.8161 601.143 88.6712C601.357 88.5231 601.529 88.3578 601.658 88.1751C601.79 87.9892 601.857 87.7719 601.857 87.523C601.857 87.1954 601.742 86.9292 601.512 86.7245C601.282 86.5197 600.97 86.4174 600.576 86.4174C600.157 86.4174 599.817 86.5355 599.555 86.7717C599.294 87.008 599.143 87.334 599.102 87.7498H598.11C598.119 87.3435 598.218 86.9733 598.407 86.6394C598.596 86.3055 598.875 86.0394 599.244 85.8409C599.612 85.6425 600.069 85.5432 600.614 85.5432C601.086 85.5432 601.494 85.6267 601.838 85.7937C602.184 85.9575 602.452 86.1874 602.641 86.4835C602.83 86.7796 602.924 87.1245 602.924 87.5183C602.924 87.8679 602.86 88.1688 602.731 88.4208C602.601 88.6728 602.431 88.8901 602.22 89.0728C602.012 89.2555 601.782 89.4177 601.53 89.5595C601.278 89.6981 601.026 89.832 600.774 89.9611C600.522 90.0871 600.291 90.221 600.08 90.3627C599.869 90.5013 599.699 90.6588 599.57 90.8352C599.44 91.0116 599.376 91.2243 599.376 91.4731V91.5912H602.948V92.4701H598.251ZM603.916 92.4701V91.251H605.083V92.4701H603.916ZM607.378 92.4701V87.1214H606.083V86.493C606.486 86.493 606.803 86.4615 607.033 86.3985C607.266 86.3323 607.433 86.2362 607.534 86.1102C607.638 85.9811 607.696 85.8236 607.708 85.6377H608.412V92.4701H607.378ZM612.647 92.574C612.105 92.574 611.634 92.437 611.234 92.163C610.837 91.8858 610.53 91.4936 610.313 90.9864C610.099 90.4761 609.992 89.8698 609.992 89.1673C609.992 88.4302 610.097 87.7908 610.308 87.249C610.519 86.704 610.828 86.2835 611.234 85.9874C611.641 85.6913 612.135 85.5432 612.718 85.5432C613.109 85.5432 613.469 85.6157 613.8 85.7606C614.134 85.9055 614.408 86.115 614.622 86.389C614.839 86.6599 614.969 86.9891 615.01 87.3765H614.069C613.981 87.0615 613.822 86.8158 613.592 86.6394C613.365 86.4599 613.08 86.3701 612.737 86.3701C612.356 86.3701 612.036 86.4788 611.778 86.6961C611.523 86.9103 611.337 87.2238 611.22 87.6364C611.107 88.0491 611.071 88.5468 611.111 89.1295C611.2 88.9216 611.329 88.7405 611.499 88.5861C611.672 88.4286 611.871 88.3074 612.094 88.2223C612.318 88.1373 612.557 88.0947 612.812 88.0947C613.266 88.0947 613.663 88.1814 614.003 88.3546C614.343 88.5279 614.608 88.7751 614.797 89.0964C614.989 89.4177 615.085 89.7989 615.085 90.2399C615.085 90.6935 614.984 91.0967 614.783 91.4495C614.584 91.7991 614.302 92.0748 613.937 92.2764C613.572 92.4748 613.142 92.574 612.647 92.574ZM612.628 91.7613C612.893 91.7613 613.127 91.6999 613.332 91.5771C613.54 91.4511 613.704 91.2778 613.824 91.0573C613.943 90.8337 614.003 90.5769 614.003 90.2871C614.003 89.9942 613.948 89.7438 613.838 89.5359C613.728 89.328 613.568 89.1689 613.361 89.0586C613.156 88.9484 612.91 88.8933 612.623 88.8933C612.387 88.8933 612.162 88.9484 611.948 89.0586C611.734 89.1657 611.559 89.3075 611.423 89.4839C611.288 89.6603 611.22 89.8524 611.22 90.0603C611.214 90.3974 611.269 90.6935 611.386 90.9486C611.505 91.2038 611.671 91.4038 611.882 91.5487C612.096 91.6905 612.345 91.7613 612.628 91.7613ZM618.558 92.574C618.028 92.574 617.565 92.4937 617.168 92.3331C616.772 92.1693 616.463 91.9409 616.242 91.6479C616.025 91.3518 615.916 91.0053 615.916 90.6084C615.916 90.3438 615.982 90.0918 616.115 89.8524C616.247 89.6099 616.417 89.4051 616.625 89.2382C616.833 89.0712 617.049 88.9657 617.272 88.9216C616.97 88.7893 616.718 88.5987 616.516 88.3499C616.315 88.0979 616.214 87.7892 616.214 87.4238C616.214 87.0206 616.316 86.6804 616.521 86.4032C616.729 86.1228 617.009 85.9102 617.362 85.7653C617.718 85.6173 618.117 85.5432 618.558 85.5432C619.005 85.5432 619.405 85.6173 619.758 85.7653C620.111 85.9102 620.389 86.1228 620.594 86.4032C620.799 86.6804 620.901 87.0206 620.901 87.4238C620.901 87.7892 620.802 88.0979 620.604 88.3499C620.408 88.5987 620.156 88.7893 619.848 88.9216C620.074 88.9657 620.29 89.0712 620.495 89.2382C620.703 89.4051 620.873 89.6099 621.005 89.8524C621.141 90.0918 621.208 90.3438 621.208 90.6084C621.208 91.0053 621.098 91.3518 620.878 91.6479C620.66 91.9409 620.353 92.1693 619.956 92.3331C619.559 92.4937 619.093 92.574 618.558 92.574ZM618.558 91.7755C619.036 91.7755 619.416 91.6684 619.696 91.4542C619.98 91.2369 620.122 90.9502 620.122 90.5943C620.122 90.358 620.057 90.1485 619.928 89.9658C619.802 89.78 619.622 89.6351 619.389 89.5311C619.156 89.424 618.879 89.3705 618.558 89.3705C618.243 89.3705 617.969 89.424 617.735 89.5311C617.502 89.6351 617.321 89.78 617.192 89.9658C617.066 90.1485 617.003 90.358 617.003 90.5943C617.003 90.9502 617.143 91.2369 617.424 91.4542C617.707 91.6684 618.085 91.7755 618.558 91.7755ZM618.558 88.5058C618.948 88.5058 619.265 88.4082 619.507 88.2129C619.753 88.0176 619.876 87.7467 619.876 87.4002C619.876 87.0505 619.753 86.7749 619.507 86.5733C619.262 86.3717 618.945 86.2709 618.558 86.2709C618.173 86.2709 617.858 86.3733 617.613 86.578C617.367 86.7796 617.244 87.0537 617.244 87.4002C617.244 87.7467 617.367 88.0176 617.613 88.2129C617.858 88.4082 618.173 88.5058 618.558 88.5058ZM622.161 92.4701V91.251H623.328V92.4701H622.161ZM625.622 92.4701V87.1214H624.328V86.493C624.731 86.493 625.048 86.4615 625.278 86.3985C625.511 86.3323 625.678 86.2362 625.778 86.1102C625.882 85.9811 625.941 85.8236 625.953 85.6377H626.657V92.4701H625.622ZM628.298 92.4701V91.251H629.465V92.4701H628.298ZM631.759 92.4701V87.1214H630.465V86.493C630.868 86.493 631.185 86.4615 631.414 86.3985C631.648 86.3323 631.815 86.2362 631.915 86.1102C632.019 85.9811 632.078 85.8236 632.09 85.6377H632.794V92.4701H631.759Z" fill="#667085"/>
<circle id="server5" cx="610.863" cy="160.83" r="26.46" fill="#D7EAFF" class="server-circle"/>
<path d="M603.924 155.35H603.935M603.924 166.214H603.935M601.737 151.729H619.237C620.445 151.729 621.424 152.539 621.424 153.539V157.161C621.424 158.16 620.445 158.971 619.237 158.971H601.737C600.528 158.971 599.549 158.16 599.549 157.161V153.539C599.549 152.539 600.528 151.729 601.737 151.729ZM601.737 162.592H619.237C620.445 162.592 621.424 163.403 621.424 164.403V168.024C621.424 169.024 620.445 169.835 619.237 169.835H601.737C600.528 169.835 599.549 169.024 599.549 168.024V164.403C599.549 163.403 600.528 162.592 601.737 162.592Z" stroke="#1873DE" stroke-width="1.81062" stroke-linecap="round" stroke-linejoin="round"/>
<rect x="621.363" y="129" width="22" height="22" rx="11" fill="#E6372B"/>
<path d="M634.425 138.434L631.3 141.82M631.3 138.434L634.425 141.82M637.862 140.804C637.862 144.189 635.675 145.882 633.075 146.864C632.939 146.914 632.791 146.912 632.656 146.857C630.05 145.882 627.862 144.189 627.862 140.804V136.064C627.862 135.885 627.928 135.713 628.045 135.586C628.163 135.459 628.322 135.387 628.487 135.387C629.737 135.387 631.3 134.575 632.387 133.546C632.52 133.423 632.688 133.356 632.862 133.356C633.036 133.356 633.205 133.423 633.337 133.546C634.431 134.582 635.987 135.387 637.237 135.387C637.403 135.387 637.562 135.459 637.679 135.586C637.796 135.713 637.862 135.885 637.862 136.064V140.804Z" stroke="#FFF8F7" stroke-width="0.739568" stroke-linecap="round" stroke-linejoin="round"/>
<path d="M538 203.69L538.007 194.291H539.606V202.325H543.85V203.69H538ZM547.893 203.82C547.252 203.82 546.693 203.684 546.216 203.411C545.739 203.133 545.369 202.737 545.105 202.221C544.845 201.706 544.715 201.086 544.715 200.362C544.715 199.66 544.842 199.045 545.098 198.516C545.354 197.988 545.718 197.576 546.19 197.281C546.667 196.987 547.237 196.839 547.9 196.839C548.541 196.839 549.098 196.98 549.57 197.262C550.042 197.543 550.406 197.946 550.662 198.471C550.922 198.995 551.052 199.626 551.052 200.362C551.052 201.043 550.929 201.643 550.682 202.163C550.439 202.678 550.081 203.084 549.609 203.378C549.141 203.673 548.569 203.82 547.893 203.82ZM547.9 202.618C548.264 202.618 548.563 202.518 548.797 202.319C549.035 202.119 549.213 201.846 549.33 201.5C549.447 201.153 549.505 200.759 549.505 200.317C549.505 199.905 549.453 199.526 549.349 199.179C549.245 198.833 549.074 198.555 548.836 198.347C548.602 198.135 548.29 198.029 547.9 198.029C547.531 198.029 547.226 198.126 546.983 198.321C546.745 198.512 546.567 198.781 546.45 199.127C546.333 199.47 546.275 199.866 546.275 200.317C546.275 200.724 546.327 201.103 546.431 201.454C546.535 201.801 546.706 202.083 546.944 202.299C547.182 202.512 547.501 202.618 547.9 202.618ZM552.499 203.69V196.969H554.013V198.425C554.122 198.092 554.275 197.808 554.475 197.574C554.678 197.335 554.917 197.153 555.19 197.028C555.463 196.902 555.76 196.839 556.08 196.839C556.158 196.839 556.234 196.844 556.308 196.852C556.381 196.861 556.436 196.876 556.47 196.898V198.412C556.423 198.391 556.36 198.375 556.282 198.367C556.208 198.358 556.143 198.354 556.087 198.354C555.762 198.328 555.474 198.341 555.222 198.393C554.975 198.445 554.765 198.534 554.592 198.659C554.423 198.781 554.295 198.937 554.208 199.127C554.122 199.314 554.078 199.532 554.078 199.784V203.69H552.499ZM560.649 203.82C560.003 203.82 559.433 203.684 558.939 203.411C558.45 203.133 558.066 202.739 557.789 202.228C557.516 201.716 557.379 201.108 557.379 200.401C557.379 199.712 557.503 199.101 557.75 198.568C558.001 198.031 558.363 197.608 558.835 197.301C559.312 196.993 559.886 196.839 560.558 196.839C561.221 196.839 561.778 196.98 562.228 197.262C562.679 197.543 563.021 197.938 563.255 198.445C563.489 198.947 563.606 199.537 563.606 200.213V200.694H558.959C558.955 201.075 559.015 201.413 559.141 201.708C559.267 202.002 559.453 202.234 559.7 202.403C559.947 202.568 560.252 202.65 560.616 202.65C560.989 202.65 561.312 202.568 561.585 202.403C561.862 202.234 562.046 201.979 562.137 201.636H563.58C563.502 202.104 563.316 202.501 563.021 202.826C562.731 203.151 562.376 203.398 561.955 203.567C561.539 203.736 561.104 203.82 560.649 203.82ZM558.952 199.712H562.111C562.111 199.387 562.053 199.095 561.936 198.835C561.823 198.57 561.652 198.362 561.422 198.211C561.193 198.055 560.902 197.977 560.551 197.977C560.205 197.977 559.912 198.061 559.674 198.23C559.436 198.399 559.256 198.618 559.134 198.887C559.013 199.151 558.952 199.426 558.952 199.712ZM565.118 203.69V196.969H566.658V197.931C566.853 197.637 567.118 197.381 567.451 197.164C567.789 196.948 568.218 196.839 568.738 196.839C568.977 196.839 569.217 196.88 569.46 196.963C569.707 197.045 569.934 197.166 570.142 197.327C570.355 197.487 570.524 197.686 570.649 197.925C570.862 197.608 571.143 197.348 571.494 197.145C571.85 196.941 572.248 196.839 572.69 196.839C572.933 196.839 573.182 196.878 573.438 196.956C573.698 197.034 573.936 197.164 574.153 197.346C574.37 197.528 574.545 197.777 574.679 198.094C574.814 198.406 574.881 198.798 574.881 199.27V203.69H573.301V199.459C573.301 199.125 573.243 198.863 573.126 198.672C573.009 198.482 572.857 198.347 572.671 198.269C572.489 198.187 572.294 198.146 572.086 198.146C571.9 198.146 571.705 198.183 571.501 198.256C571.302 198.33 571.13 198.451 570.987 198.62C570.849 198.789 570.779 199.017 570.779 199.303V203.69H569.2V199.205C569.2 198.971 569.139 198.776 569.018 198.62C568.897 198.464 568.743 198.347 568.556 198.269C568.374 198.187 568.188 198.146 567.997 198.146C567.802 198.146 567.603 198.187 567.399 198.269C567.2 198.352 567.033 198.477 566.899 198.646C566.765 198.815 566.697 199.034 566.697 199.303V203.69H565.118ZM576.608 203.69V196.969H578.122V203.69H576.608ZM576.582 195.793V194.298H578.148V195.793H576.582ZM579.997 205.783V196.969H581.576L581.589 198.029C581.676 197.881 581.787 197.736 581.921 197.593C582.06 197.45 582.218 197.322 582.395 197.21C582.577 197.097 582.779 197.008 583 196.943C583.221 196.874 583.464 196.839 583.728 196.839C584.244 196.839 584.701 196.963 585.099 197.21C585.498 197.452 585.81 197.827 586.035 198.334C586.265 198.841 586.38 199.483 586.38 200.258C586.38 201.051 586.263 201.712 586.029 202.241C585.795 202.769 585.468 203.166 585.047 203.43C584.627 203.69 584.14 203.82 583.585 203.82C583.329 203.82 583.095 203.786 582.883 203.716C582.675 203.647 582.489 203.552 582.324 203.43C582.159 203.309 582.014 203.177 581.888 203.034C581.767 202.891 581.665 202.741 581.583 202.585V205.783H579.997ZM583.234 202.637C583.711 202.637 584.105 202.449 584.417 202.072C584.729 201.69 584.885 201.095 584.885 200.284C584.885 199.582 584.738 199.03 584.443 198.627C584.153 198.219 583.75 198.016 583.234 198.016C582.679 198.016 582.263 198.23 581.986 198.659C581.709 199.084 581.57 199.626 581.57 200.284C581.57 200.709 581.631 201.101 581.752 201.461C581.878 201.816 582.062 202.102 582.304 202.319C582.551 202.531 582.861 202.637 583.234 202.637ZM590.366 203.82C589.898 203.82 589.454 203.747 589.033 203.599C588.617 203.448 588.266 203.211 587.98 202.891C587.699 202.57 587.521 202.156 587.447 201.649H588.838C588.899 201.896 589.005 202.098 589.157 202.254C589.313 202.41 589.495 202.525 589.703 202.598C589.915 202.668 590.134 202.702 590.359 202.702C590.762 202.702 591.087 202.633 591.334 202.494C591.581 202.356 591.705 202.141 591.705 201.851C591.705 201.638 591.635 201.469 591.497 201.344C591.362 201.218 591.141 201.123 590.834 201.058L589.56 200.765C588.988 200.64 588.531 200.432 588.188 200.141C587.846 199.851 587.673 199.441 587.668 198.913C587.664 198.514 587.764 198.159 587.967 197.847C588.171 197.535 588.474 197.29 588.877 197.112C589.28 196.93 589.776 196.839 590.366 196.839C591.15 196.839 591.778 197.015 592.251 197.366C592.727 197.712 592.972 198.209 592.985 198.854H591.64C591.592 198.564 591.456 198.339 591.23 198.178C591.005 198.014 590.712 197.931 590.353 197.931C589.98 197.931 589.675 198.003 589.436 198.146C589.198 198.289 589.079 198.508 589.079 198.802C589.079 199.006 589.168 199.166 589.345 199.283C589.527 199.4 589.802 199.5 590.171 199.582L591.38 199.875C591.726 199.961 592.01 200.078 592.231 200.226C592.452 200.373 592.623 200.536 592.745 200.713C592.87 200.887 592.957 201.066 593.005 201.253C593.057 201.435 593.083 201.604 593.083 201.76C593.083 202.193 592.97 202.564 592.745 202.871C592.524 203.175 592.21 203.409 591.802 203.573C591.399 203.738 590.92 203.82 590.366 203.82ZM596.99 203.82C596.661 203.82 596.342 203.773 596.035 203.677C595.731 203.578 595.458 203.435 595.216 203.248C594.973 203.058 594.78 202.824 594.637 202.546C594.494 202.269 594.423 201.946 594.423 201.578V196.969H596.009V201.396C596.009 201.76 596.124 202.059 596.353 202.293C596.587 202.527 596.938 202.644 597.406 202.644C597.831 202.644 598.171 202.533 598.427 202.312C598.682 202.087 598.81 201.764 598.81 201.344V196.969H600.383V203.69H599.168L598.992 202.377C598.91 202.746 598.765 203.036 598.557 203.248C598.353 203.456 598.113 203.604 597.835 203.69C597.562 203.777 597.281 203.82 596.99 203.82ZM602.239 203.69V196.969H603.78V197.931C603.975 197.637 604.239 197.381 604.573 197.164C604.911 196.948 605.34 196.839 605.86 196.839C606.098 196.839 606.338 196.88 606.581 196.963C606.828 197.045 607.056 197.166 607.264 197.327C607.476 197.487 607.645 197.686 607.771 197.925C607.983 197.608 608.265 197.348 608.616 197.145C608.971 196.941 609.37 196.839 609.812 196.839C610.054 196.839 610.303 196.878 610.559 196.956C610.819 197.034 611.057 197.164 611.274 197.346C611.491 197.528 611.666 197.777 611.801 198.094C611.935 198.406 612.002 198.798 612.002 199.27V203.69H610.423V199.459C610.423 199.125 610.364 198.863 610.247 198.672C610.13 198.482 609.978 198.347 609.792 198.269C609.61 198.187 609.415 198.146 609.207 198.146C609.021 198.146 608.826 198.183 608.622 198.256C608.423 198.33 608.252 198.451 608.109 198.62C607.97 198.789 607.901 199.017 607.901 199.303V203.69H606.321V199.205C606.321 198.971 606.26 198.776 606.139 198.62C606.018 198.464 605.864 198.347 605.678 198.269C605.496 198.187 605.309 198.146 605.119 198.146C604.924 198.146 604.724 198.187 604.521 198.269C604.321 198.352 604.154 198.477 604.02 198.646C603.886 198.815 603.819 199.034 603.819 199.303V203.69H602.239ZM616.199 203.82C615.311 203.82 614.613 203.515 614.106 202.904C613.599 202.293 613.345 201.424 613.345 200.297C613.345 199.595 613.447 198.986 613.651 198.471C613.859 197.951 614.164 197.55 614.567 197.268C614.97 196.982 615.467 196.839 616.056 196.839C616.333 196.839 616.585 196.874 616.81 196.943C617.04 197.008 617.243 197.095 617.421 197.203C617.599 197.312 617.748 197.431 617.869 197.561C617.995 197.691 618.093 197.821 618.162 197.951V194.031H619.754V203.69H618.584L618.409 202.312C618.353 202.473 618.272 202.642 618.168 202.819C618.069 202.993 617.932 203.155 617.759 203.307C617.59 203.458 617.378 203.582 617.122 203.677C616.866 203.773 616.559 203.82 616.199 203.82ZM616.524 202.657C617.092 202.657 617.505 202.473 617.765 202.104C618.03 201.732 618.162 201.116 618.162 200.258C618.158 199.769 618.097 199.357 617.98 199.023C617.867 198.69 617.694 198.438 617.46 198.269C617.226 198.1 616.92 198.016 616.543 198.016C616.067 198.016 615.675 198.191 615.367 198.542C615.064 198.893 614.912 199.465 614.912 200.258C614.912 201.047 615.053 201.645 615.334 202.052C615.616 202.455 616.013 202.657 616.524 202.657ZM624.357 203.82C623.716 203.82 623.157 203.684 622.68 203.411C622.203 203.133 621.833 202.737 621.568 202.221C621.308 201.706 621.178 201.086 621.178 200.362C621.178 199.66 621.306 199.045 621.562 198.516C621.818 197.988 622.182 197.576 622.654 197.281C623.131 196.987 623.7 196.839 624.363 196.839C625.005 196.839 625.562 196.98 626.034 197.262C626.506 197.543 626.87 197.946 627.126 198.471C627.386 198.995 627.516 199.626 627.516 200.362C627.516 201.043 627.392 201.643 627.145 202.163C626.903 202.678 626.545 203.084 626.073 203.378C625.605 203.673 625.033 203.82 624.357 203.82ZM624.363 202.618C624.727 202.618 625.026 202.518 625.26 202.319C625.499 202.119 625.676 201.846 625.793 201.5C625.91 201.153 625.969 200.759 625.969 200.317C625.969 199.905 625.917 199.526 625.813 199.179C625.709 198.833 625.538 198.555 625.299 198.347C625.065 198.135 624.753 198.029 624.363 198.029C623.995 198.029 623.69 198.126 623.447 198.321C623.209 198.512 623.031 198.781 622.914 199.127C622.797 199.47 622.738 199.866 622.738 200.317C622.738 200.724 622.79 201.103 622.894 201.454C622.998 201.801 623.17 202.083 623.408 202.299C623.646 202.512 623.965 202.618 624.363 202.618ZM630.9 203.788C630.466 203.788 630.12 203.734 629.86 203.625C629.6 203.517 629.405 203.372 629.275 203.19C629.145 203.008 629.06 202.804 629.021 202.579C628.982 202.349 628.963 202.115 628.963 201.877V194.031H630.51V201.695C630.51 201.985 630.568 202.21 630.685 202.371C630.807 202.531 631.002 202.624 631.27 202.65L631.608 202.663V203.658C631.491 203.692 631.372 203.723 631.251 203.749C631.129 203.775 631.012 203.788 630.9 203.788ZM635.554 203.82C634.913 203.82 634.354 203.684 633.877 203.411C633.401 203.133 633.03 202.737 632.766 202.221C632.506 201.706 632.376 201.086 632.376 200.362C632.376 199.66 632.504 199.045 632.759 198.516C633.015 197.988 633.379 197.576 633.851 197.281C634.328 196.987 634.898 196.839 635.561 196.839C636.202 196.839 636.759 196.98 637.231 197.262C637.704 197.543 638.068 197.946 638.323 198.471C638.583 198.995 638.713 199.626 638.713 200.362C638.713 201.043 638.59 201.643 638.343 202.163C638.1 202.678 637.743 203.084 637.27 203.378C636.802 203.673 636.23 203.82 635.554 203.82ZM635.561 202.618C635.925 202.618 636.224 202.518 636.458 202.319C636.696 202.119 636.874 201.846 636.991 201.5C637.108 201.153 637.166 200.759 637.166 200.317C637.166 199.905 637.114 199.526 637.01 199.179C636.906 198.833 636.735 198.555 636.497 198.347C636.263 198.135 635.951 198.029 635.561 198.029C635.192 198.029 634.887 198.126 634.644 198.321C634.406 198.512 634.228 198.781 634.111 199.127C633.994 199.47 633.936 199.866 633.936 200.317C633.936 200.724 633.988 201.103 634.092 201.454C634.196 201.801 634.367 202.083 634.605 202.299C634.844 202.512 635.162 202.618 635.561 202.618ZM640.16 203.69V196.969H641.674V198.425C641.783 198.092 641.937 197.808 642.136 197.574C642.34 197.335 642.578 197.153 642.851 197.028C643.124 196.902 643.421 196.839 643.741 196.839C643.819 196.839 643.895 196.844 643.969 196.852C644.043 196.861 644.097 196.876 644.131 196.898V198.412C644.084 198.391 644.021 198.375 643.943 198.367C643.869 198.358 643.804 198.354 643.748 198.354C643.423 198.328 643.135 198.341 642.883 198.393C642.636 198.445 642.426 198.534 642.253 198.659C642.084 198.781 641.956 198.937 641.869 199.127C641.783 199.314 641.739 199.532 641.739 199.784V203.69H640.16ZM647.939 203.82C647.471 203.82 647.027 203.747 646.607 203.599C646.191 203.448 645.84 203.211 645.554 202.891C645.272 202.57 645.094 202.156 645.021 201.649H646.412C646.472 201.896 646.578 202.098 646.73 202.254C646.886 202.41 647.068 202.525 647.276 202.598C647.488 202.668 647.707 202.702 647.933 202.702C648.336 202.702 648.661 202.633 648.908 202.494C649.155 202.356 649.278 202.141 649.278 201.851C649.278 201.638 649.209 201.469 649.07 201.344C648.936 201.218 648.715 201.123 648.407 201.058L647.133 200.765C646.561 200.64 646.104 200.432 645.762 200.141C645.419 199.851 645.246 199.441 645.242 198.913C645.237 198.514 645.337 198.159 645.541 197.847C645.744 197.535 646.048 197.29 646.451 197.112C646.854 196.93 647.35 196.839 647.939 196.839C648.723 196.839 649.352 197.015 649.824 197.366C650.301 197.712 650.546 198.209 650.559 198.854H649.213C649.165 198.564 649.029 198.339 648.804 198.178C648.578 198.014 648.286 197.931 647.926 197.931C647.553 197.931 647.248 198.003 647.01 198.146C646.771 198.289 646.652 198.508 646.652 198.802C646.652 199.006 646.741 199.166 646.919 199.283C647.101 199.4 647.376 199.5 647.744 199.582L648.953 199.875C649.3 199.961 649.584 200.078 649.805 200.226C650.026 200.373 650.197 200.536 650.318 200.713C650.444 200.887 650.53 201.066 650.578 201.253C650.63 201.435 650.656 201.604 650.656 201.76C650.656 202.193 650.543 202.564 650.318 202.871C650.097 203.175 649.783 203.409 649.376 203.573C648.973 203.738 648.494 203.82 647.939 203.82ZM652.12 203.69V196.969H653.634V203.69H652.12ZM652.094 195.793V194.298H653.66V195.793H652.094ZM658.143 203.742C657.61 203.742 657.196 203.673 656.901 203.534C656.611 203.391 656.409 203.19 656.297 202.93C656.184 202.67 656.128 202.36 656.128 202V198.087H655.036V196.969H656.173L656.57 194.974H657.707V196.963H659.209V198.087H657.707L657.714 201.942C657.714 202.141 657.735 202.288 657.779 202.384C657.826 202.475 657.9 202.535 658 202.566C658.104 202.592 658.24 202.605 658.409 202.605H659.241V203.606C659.15 203.64 659.016 203.671 658.838 203.697C658.665 203.727 658.433 203.742 658.143 203.742ZM663.899 203.833C662.811 203.833 661.955 203.424 661.331 202.605C660.712 201.786 660.402 200.592 660.402 199.023C660.402 197.966 660.545 197.078 660.831 196.358C661.117 195.635 661.522 195.089 662.046 194.72C662.571 194.348 663.19 194.161 663.905 194.161C664.98 194.161 665.829 194.575 666.453 195.403C667.082 196.226 667.396 197.429 667.396 199.01C667.396 200.583 667.084 201.781 666.46 202.605C665.84 203.424 664.987 203.833 663.899 203.833ZM663.905 202.514C664.516 202.514 664.971 202.243 665.27 201.701C665.569 201.16 665.719 200.265 665.719 199.017C665.719 197.743 665.567 196.828 665.264 196.274C664.961 195.719 664.506 195.442 663.899 195.442C663.292 195.442 662.833 195.721 662.521 196.28C662.213 196.839 662.059 197.751 662.059 199.017C662.059 200.26 662.213 201.155 662.521 201.701C662.833 202.243 663.294 202.514 663.905 202.514ZM672.024 203.833C670.936 203.833 670.08 203.424 669.456 202.605C668.837 201.786 668.527 200.592 668.527 199.023C668.527 197.966 668.67 197.078 668.956 196.358C669.242 195.635 669.647 195.089 670.171 194.72C670.696 194.348 671.315 194.161 672.03 194.161C673.105 194.161 673.954 194.575 674.578 195.403C675.207 196.226 675.521 197.429 675.521 199.01C675.521 200.583 675.209 201.781 674.585 202.605C673.965 203.424 673.112 203.833 672.024 203.833ZM672.03 202.514C672.641 202.514 673.096 202.243 673.395 201.701C673.694 201.16 673.844 200.265 673.844 199.017C673.844 197.743 673.692 196.828 673.389 196.274C673.086 195.719 672.631 195.442 672.024 195.442C671.417 195.442 670.958 195.721 670.646 196.28C670.338 196.839 670.184 197.751 670.184 199.017C670.184 200.26 670.338 201.155 670.646 201.701C670.958 202.243 671.419 202.514 672.03 202.514ZM676.884 203.69V202.845V202.41C676.884 201.929 676.973 201.515 677.151 201.168C677.329 200.817 677.565 200.512 677.859 200.252C678.154 199.992 678.477 199.762 678.828 199.563C679.183 199.359 679.534 199.168 679.881 198.991C680.232 198.809 680.555 198.622 680.849 198.432C681.144 198.237 681.38 198.02 681.558 197.782C681.74 197.543 681.831 197.26 681.831 196.93C681.831 196.51 681.681 196.168 681.382 195.903C681.088 195.635 680.687 195.5 680.18 195.5C679.643 195.5 679.198 195.654 678.847 195.962C678.501 196.269 678.295 196.703 678.23 197.262H676.696C676.705 196.69 676.841 196.17 677.105 195.702C677.37 195.234 677.762 194.861 678.282 194.584C678.802 194.302 679.45 194.161 680.225 194.161C680.897 194.161 681.476 194.278 681.961 194.512C682.451 194.742 682.828 195.065 683.092 195.481C683.361 195.892 683.495 196.373 683.495 196.924C683.495 197.405 683.406 197.816 683.228 198.159C683.055 198.501 682.823 198.798 682.533 199.049C682.247 199.296 681.931 199.515 681.584 199.706C681.242 199.896 680.897 200.076 680.55 200.245C680.208 200.41 679.892 200.583 679.601 200.765C679.315 200.943 679.084 201.147 678.906 201.376C678.733 201.606 678.646 201.881 678.646 202.202V202.338H683.514V203.69H676.884Z" fill="#525D73"/>
<path d="M588.51 217.39V212.041H587.215V211.413C587.619 211.413 587.935 211.382 588.165 211.319C588.398 211.252 588.565 211.156 588.666 211.03C588.77 210.901 588.828 210.744 588.841 210.558H589.545V217.39H588.51ZM593.472 217.494C593.082 217.494 592.718 217.42 592.381 217.272C592.044 217.121 591.763 216.91 591.54 216.639C591.319 216.365 591.187 216.039 591.143 215.661H592.116C592.189 215.96 592.341 216.203 592.575 216.388C592.811 216.574 593.099 216.667 593.439 216.667C593.82 216.667 594.15 216.57 594.427 216.374C594.704 216.179 594.91 215.875 595.046 215.462C595.184 215.05 595.236 214.517 595.202 213.865C595.12 214.086 594.995 214.28 594.828 214.446C594.661 214.61 594.463 214.739 594.233 214.834C594.003 214.928 593.748 214.976 593.468 214.976C593.014 214.976 592.614 214.887 592.267 214.711C591.921 214.535 591.65 214.284 591.455 213.96C591.259 213.632 591.162 213.242 591.162 212.788C591.162 212.334 591.259 211.933 591.455 211.583C591.653 211.233 591.932 210.959 592.291 210.761C592.653 210.563 593.082 210.463 593.576 210.463C594.118 210.463 594.587 210.6 594.984 210.874C595.381 211.148 595.687 211.539 595.901 212.046C596.115 212.553 596.222 213.158 596.222 213.861C596.222 214.642 596.115 215.303 595.901 215.845C595.687 216.384 595.373 216.793 594.961 217.074C594.551 217.354 594.055 217.494 593.472 217.494ZM593.6 214.135C593.836 214.135 594.061 214.081 594.276 213.974C594.49 213.867 594.665 213.725 594.8 213.549C594.939 213.369 595.008 213.177 595.008 212.972C595.011 212.632 594.953 212.334 594.833 212.079C594.717 211.824 594.551 211.626 594.337 211.484C594.126 211.339 593.877 211.267 593.59 211.267C593.332 211.267 593.102 211.33 592.901 211.456C592.699 211.578 592.54 211.752 592.423 211.975C592.31 212.196 592.253 212.451 592.253 212.741C592.253 213.172 592.37 213.512 592.603 213.761C592.836 214.01 593.168 214.135 593.6 214.135ZM597.241 217.39V216.818V216.516C597.241 216.17 597.305 215.869 597.435 215.614C597.567 215.358 597.74 215.136 597.954 214.947C598.168 214.755 598.403 214.585 598.658 214.437C598.917 214.289 599.173 214.147 599.428 214.012C599.684 213.876 599.918 213.736 600.133 213.591C600.347 213.443 600.518 213.278 600.648 213.095C600.78 212.909 600.846 212.692 600.846 212.443C600.846 212.115 600.731 211.849 600.501 211.645C600.271 211.44 599.959 211.337 599.566 211.337C599.147 211.337 598.806 211.456 598.545 211.692C598.283 211.928 598.132 212.254 598.091 212.67H597.099C597.109 212.264 597.208 211.893 597.397 211.559C597.586 211.226 597.865 210.959 598.233 210.761C598.602 210.563 599.058 210.463 599.603 210.463C600.076 210.463 600.484 210.547 600.827 210.714C601.174 210.878 601.441 211.107 601.63 211.404C601.819 211.7 601.914 212.045 601.914 212.438C601.914 212.788 601.849 213.089 601.72 213.341C601.591 213.593 601.421 213.81 601.21 213.993C601.002 214.176 600.772 214.338 600.52 214.48C600.268 214.618 600.016 214.752 599.764 214.881C599.512 215.007 599.28 215.141 599.069 215.283C598.858 215.421 598.688 215.579 598.559 215.755C598.43 215.932 598.365 216.144 598.365 216.393V216.511H601.937V217.39H597.241ZM602.906 217.39V216.171H604.073V217.39H602.906ZM606.367 217.39V212.041H605.073V211.413C605.476 211.413 605.792 211.382 606.022 211.319C606.255 211.252 606.422 211.156 606.523 211.03C606.627 210.901 606.685 210.744 606.698 210.558H607.402V217.39H606.367ZM611.637 217.494C611.095 217.494 610.624 217.357 610.224 217.083C609.827 216.806 609.52 216.414 609.302 215.906C609.088 215.396 608.981 214.79 608.981 214.087C608.981 213.35 609.087 212.711 609.298 212.169C609.509 211.624 609.817 211.204 610.224 210.907C610.63 210.611 611.125 210.463 611.707 210.463C612.098 210.463 612.459 210.536 612.789 210.681C613.123 210.826 613.397 211.035 613.612 211.309C613.829 211.58 613.958 211.909 613.999 212.297H613.059C612.971 211.982 612.812 211.736 612.582 211.559C612.355 211.38 612.07 211.29 611.726 211.29C611.345 211.29 611.025 211.399 610.767 211.616C610.512 211.83 610.326 212.144 610.21 212.556C610.096 212.969 610.06 213.467 610.101 214.05C610.189 213.842 610.318 213.661 610.488 213.506C610.662 213.349 610.86 213.227 611.084 213.142C611.307 213.057 611.547 213.015 611.802 213.015C612.256 213.015 612.652 213.101 612.993 213.275C613.333 213.448 613.597 213.695 613.786 214.016C613.979 214.338 614.075 214.719 614.075 215.16C614.075 215.614 613.974 216.017 613.772 216.37C613.574 216.719 613.292 216.995 612.926 217.196C612.561 217.395 612.131 217.494 611.637 217.494ZM611.618 216.681C611.882 216.681 612.117 216.62 612.322 216.497C612.53 216.371 612.693 216.198 612.813 215.977C612.933 215.754 612.993 215.497 612.993 215.207C612.993 214.914 612.938 214.664 612.827 214.456C612.717 214.248 612.558 214.089 612.35 213.979C612.145 213.868 611.9 213.813 611.613 213.813C611.377 213.813 611.151 213.868 610.937 213.979C610.723 214.086 610.548 214.228 610.413 214.404C610.277 214.58 610.21 214.772 610.21 214.98C610.203 215.317 610.258 215.614 610.375 215.869C610.495 216.124 610.66 216.324 610.871 216.469C611.085 216.611 611.334 216.681 611.618 216.681ZM617.547 217.494C617.018 217.494 616.555 217.414 616.158 217.253C615.761 217.089 615.452 216.861 615.232 216.568C615.014 216.272 614.906 215.925 614.906 215.528C614.906 215.264 614.972 215.012 615.104 214.772C615.237 214.53 615.407 214.325 615.615 214.158C615.822 213.991 616.038 213.886 616.262 213.842C615.959 213.709 615.707 213.519 615.506 213.27C615.304 213.018 615.203 212.709 615.203 212.344C615.203 211.941 615.306 211.6 615.511 211.323C615.719 211.043 615.999 210.83 616.352 210.685C616.708 210.537 617.106 210.463 617.547 210.463C617.994 210.463 618.394 210.537 618.747 210.685C619.1 210.83 619.379 211.043 619.584 211.323C619.788 211.6 619.891 211.941 619.891 212.344C619.891 212.709 619.791 213.018 619.593 213.27C619.398 213.519 619.146 213.709 618.837 213.842C619.064 213.886 619.28 213.991 619.484 214.158C619.692 214.325 619.862 214.53 619.995 214.772C620.13 215.012 620.198 215.264 620.198 215.528C620.198 215.925 620.088 216.272 619.867 216.568C619.65 216.861 619.343 217.089 618.946 217.253C618.549 217.414 618.083 217.494 617.547 217.494ZM617.547 216.696C618.026 216.696 618.405 216.588 618.686 216.374C618.969 216.157 619.111 215.87 619.111 215.514C619.111 215.278 619.046 215.069 618.917 214.886C618.791 214.7 618.612 214.555 618.379 214.451C618.146 214.344 617.868 214.291 617.547 214.291C617.232 214.291 616.958 214.344 616.725 214.451C616.492 214.555 616.311 214.7 616.182 214.886C616.056 215.069 615.993 215.278 615.993 215.514C615.993 215.87 616.133 216.157 616.413 216.374C616.697 216.588 617.075 216.696 617.547 216.696ZM617.547 213.426C617.938 213.426 618.254 213.328 618.497 213.133C618.743 212.938 618.865 212.667 618.865 212.32C618.865 211.971 618.743 211.695 618.497 211.493C618.251 211.292 617.935 211.191 617.547 211.191C617.163 211.191 616.848 211.293 616.602 211.498C616.356 211.7 616.234 211.974 616.234 212.32C616.234 212.667 616.356 212.938 616.602 213.133C616.848 213.328 617.163 213.426 617.547 213.426ZM621.15 217.39V216.171H622.317V217.39H621.15ZM624.612 217.39V212.041H623.317V211.413C623.72 211.413 624.037 211.382 624.267 211.319C624.5 211.252 624.667 211.156 624.768 211.03C624.872 210.901 624.93 210.744 624.943 210.558H625.647V217.39H624.612ZM627.287 217.39V216.171H628.454V217.39H627.287ZM629.781 217.39V216.818V216.516C629.781 216.17 629.845 215.869 629.974 215.614C630.107 215.358 630.28 215.136 630.494 214.947C630.708 214.755 630.943 214.585 631.198 214.437C631.456 214.289 631.713 214.147 631.968 214.012C632.223 213.876 632.458 213.736 632.672 213.591C632.886 213.443 633.058 213.278 633.187 213.095C633.32 212.909 633.386 212.692 633.386 212.443C633.386 212.115 633.271 211.849 633.041 211.645C632.811 211.44 632.499 211.337 632.105 211.337C631.686 211.337 631.346 211.456 631.085 211.692C630.823 211.928 630.672 212.254 630.631 212.67H629.639C629.648 212.264 629.747 211.893 629.936 211.559C630.125 211.226 630.404 210.959 630.773 210.761C631.141 210.563 631.598 210.463 632.143 210.463C632.616 210.463 633.023 210.547 633.367 210.714C633.713 210.878 633.981 211.107 634.17 211.404C634.359 211.7 634.454 212.045 634.454 212.438C634.454 212.788 634.389 213.089 634.26 213.341C634.131 213.593 633.961 213.81 633.75 213.993C633.542 214.176 633.312 214.338 633.06 214.48C632.808 214.618 632.556 214.752 632.304 214.881C632.052 215.007 631.82 215.141 631.609 215.283C631.398 215.421 631.228 215.579 631.099 215.755C630.97 215.932 630.905 216.144 630.905 216.393V216.511H634.477V217.39H629.781Z" fill="#667085"/>
</svg>
