<svg width="20" height="20" viewBox="0 0 20 20" fill="none" xmlns="http://www.w3.org/2000/svg">
<path d="M10.3752 12.0795C9.60168 12.0795 8.85982 11.7722 8.31284 11.2252C7.76586 10.6782 7.45857 9.93635 7.45857 9.1628C7.45857 8.38925 7.76586 7.64739 8.31284 7.10041C8.85982 6.55343 9.60168 6.24613 10.3752 6.24613C11.1488 6.24613 11.8906 6.55343 12.4376 7.10041C12.9846 7.64739 13.2919 8.38925 13.2919 9.1628C13.2919 9.93635 12.9846 10.6782 12.4376 11.2252C11.8906 11.7722 11.1488 12.0795 10.3752 12.0795ZM16.5669 9.97113C16.6002 9.70447 16.6252 9.4378 16.6252 9.1628C16.6252 8.8878 16.6002 8.6128 16.5669 8.32947L18.3252 6.97113C18.4836 6.84613 18.5252 6.62113 18.4252 6.4378L16.7586 3.55447C16.6586 3.37113 16.4336 3.29613 16.2502 3.37113L14.1752 4.20447C13.7419 3.87947 13.2919 3.59613 12.7669 3.3878L12.4586 1.17947C12.4252 0.979468 12.2502 0.829468 12.0419 0.829468H8.70857C8.50023 0.829468 8.32523 0.979468 8.2919 1.17947L7.98357 3.3878C7.45857 3.59613 7.00857 3.87947 6.57523 4.20447L4.50023 3.37113C4.3169 3.29613 4.0919 3.37113 3.9919 3.55447L2.32523 6.4378C2.2169 6.62113 2.2669 6.84613 2.42523 6.97113L4.18357 8.32947C4.15023 8.6128 4.12523 8.8878 4.12523 9.1628C4.12523 9.4378 4.15023 9.70447 4.18357 9.97113L2.42523 11.3545C2.2669 11.4795 2.2169 11.7045 2.32523 11.8878L3.9919 14.7711C4.0919 14.9545 4.3169 15.0211 4.50023 14.9545L6.57523 14.1128C7.00857 14.4461 7.45857 14.7295 7.98357 14.9378L8.2919 17.1461C8.32523 17.3461 8.50023 17.4961 8.70857 17.4961H12.0419C12.2502 17.4961 12.4252 17.3461 12.4586 17.1461L12.7669 14.9378C13.2919 14.7211 13.7419 14.4461 14.1752 14.1128L16.2502 14.9545C16.4336 15.0211 16.6586 14.9545 16.7586 14.7711L18.4252 11.8878C18.5252 11.7045 18.4836 11.4795 18.3252 11.3545L16.5669 9.97113Z" fill="currentColor"/>
</svg>
