<svg width="18" height="18" viewBox="0 0 18 18" fill="none" xmlns="http://www.w3.org/2000/svg">
<path d="M16.6667 5.16667C17.3333 5.83333 17.3333 6.91667 16.6667 7.5L14.3333 9.83333L7.83333 3.33333L10.1667 1C10.8333 0.333333 11.9167 0.333333 12.5 1L14 2.5L16.5 0L17.6667 1.16667L15.1667 3.66667L16.6667 5.16667ZM11.8333 10L10.6667 8.83333L8.33333 11.1667L6.58333 9.41667L8.91667 7.08333L7.75 5.91667L5.41667 8.25L4.16667 7.08333L1.83333 9.41667C1.16667 10.0833 1.16667 11.1667 1.83333 11.75L3.33333 13.25L0 16.5833L1.16667 17.75L4.5 14.4167L6 15.9167C6.66667 16.5833 7.75 16.5833 8.33333 15.9167L10.6667 13.5833L9.5 12.4167L11.8333 10Z" fill="currentColor"/>
</svg>
