<svg width="17" height="15" viewBox="0 0 17 15" fill="none" xmlns="http://www.w3.org/2000/svg">
<path d="M16.419 12.1816L9.91156 0.920859C9.20996 -0.306953 7.45594 -0.306953 6.73679 0.920859L0.246932 12.1816C-0.454675 13.3919 0.422334 14.9179 1.82555 14.9179H14.8228C16.2436 14.9179 17.1206 13.3919 16.419 12.1816ZM8.33295 3.72729C8.89423 3.72729 9.33274 4.18333 9.33274 4.72707V4.79724L8.99948 9.81372C8.98194 10.1645 8.68375 10.4452 8.33295 10.4452C7.98215 10.4452 7.68396 10.1645 7.66642 9.81372L7.33316 4.79724C7.29808 4.21841 7.75412 3.72729 8.33295 3.72729ZM8.33295 13.0937C7.75412 13.0937 7.28054 12.6201 7.28054 12.0413C7.28054 11.4625 7.75412 10.9889 8.33295 10.9889C8.91177 10.9889 9.38536 11.4625 9.38536 12.0413C9.38536 12.6201 8.91177 13.0937 8.33295 13.0937Z" fill="currentColor"/>
</svg>
