<svg width="27" height="22" viewBox="0 0 27 22" fill="none" xmlns="http://www.w3.org/2000/svg">
<path d="M6.56152 5.42985H6.57246M6.56152 16.2936H6.57246M4.37402 1.80859H21.874C23.0821 1.80859 24.0615 2.61924 24.0615 3.61922V7.24047C24.0615 8.24045 23.0821 9.0511 21.874 9.0511H4.37402C3.1659 9.0511 2.18652 8.24045 2.18652 7.24047V3.61922C2.18652 2.61924 3.1659 1.80859 4.37402 1.80859ZM4.37402 12.6724H21.874C23.0821 12.6724 24.0615 13.483 24.0615 14.483V18.1042C24.0615 19.1042 23.0821 19.9149 21.874 19.9149H4.37402C3.1659 19.9149 2.18652 19.1042 2.18652 18.1042V14.483C2.18652 13.483 3.1659 12.6724 4.37402 12.6724Z" stroke="#1873DE" stroke-width="1.81062" stroke-linecap="round" stroke-linejoin="round"/>
</svg>
