<svg width="17" height="18" viewBox="0 0 17 18" fill="none" xmlns="http://www.w3.org/2000/svg">
<path d="M10.069 6.73254L6.59679 10.4941M6.59679 6.73254L10.069 10.4941M13.8885 9.36565C13.8885 13.1272 11.4579 15.008 8.56901 16.0989C8.41773 16.1544 8.25341 16.1517 8.10373 16.0913C5.2079 15.008 2.77734 13.1272 2.77734 9.36565V4.09944C2.77734 3.89992 2.85051 3.70856 2.98074 3.56747C3.11098 3.42639 3.28761 3.34713 3.47179 3.34713C4.86068 3.34713 6.59679 2.44435 7.80512 1.30083C7.95224 1.16466 8.13939 1.08984 8.3329 1.08984C8.5264 1.08984 8.71355 1.16466 8.86068 1.30083C10.076 2.45187 11.8051 3.34713 13.194 3.34713C13.3782 3.34713 13.5548 3.42639 13.6851 3.56747C13.8153 3.70856 13.8885 3.89992 13.8885 4.09944V9.36565Z" stroke="#FFF8F7" stroke-width="1.46" stroke-linecap="round" stroke-linejoin="round"/>
</svg>
