<svg width="14" height="17" viewBox="0 0 14 17" fill="none" xmlns="http://www.w3.org/2000/svg">
<path d="M8.34175 6.6157L6.32489 9.65051L4.96218 8.75334M12.3988 8.75334C12.3988 12.3992 9.84676 14.2221 6.81343 15.2794C6.65459 15.3332 6.48205 15.3306 6.32489 15.2721C3.28426 14.2221 0.732178 12.3992 0.732178 8.75334V3.64917C0.732178 3.45579 0.809001 3.27032 0.945746 3.13357C1.08249 2.99683 1.26796 2.92001 1.46134 2.92001C2.91968 2.92001 4.74259 2.04501 6.01134 0.936672C6.16582 0.804692 6.36233 0.732178 6.56551 0.732178C6.76869 0.732178 6.9652 0.804692 7.11968 0.936672C8.39572 2.0523 10.2113 2.92001 11.6697 2.92001C11.8631 2.92001 12.0485 2.99683 12.1853 3.13357C12.322 3.27032 12.3988 3.45579 12.3988 3.64917V8.75334Z" stroke="#FFF8F7" stroke-width="1.46434" stroke-linecap="round" stroke-linejoin="round"/>
</svg>
